<?xml version="1.0" standalone="no"?>
<!DOCTYPE svg PUBLIC "-//W3C//DTD SVG 20010904//EN"
 "http://www.w3.org/TR/2001/REC-SVG-20010904/DTD/svg10.dtd">
<svg version="1.0" xmlns="http://www.w3.org/2000/svg"
 width="817.000000pt" height="861.000000pt" viewBox="0 0 817.000000 861.000000"
 preserveAspectRatio="xMidYMid meet">

<g transform="translate(0.000000,861.000000) scale(0.100000,-0.100000)"
fill="#000000" stroke="none">
<path d="M4087 7675 c-602 -304 -1144 -741 -1400 -1130 -161 -244 -237 -472
-237 -709 0 -130 14 -196 66 -298 159 -316 623 -613 1332 -851 l152 -51 0
-333 0 -333 -390 0 c-446 0 -411 8 -393 -94 20 -115 82 -245 177 -366 l46 -60
280 0 280 0 0 -218 c0 -253 -15 -219 138 -310 l103 -62 32 17 c18 9 71 40 120
70 80 50 87 57 87 86 0 18 0 692 0 1500 0 1007 3 1467 11 1467 5 0 24 -7 42
-17 117 -60 258 -55 394 14 71 36 188 135 248 212 26 34 52 61 56 61 14 0 90
-119 130 -205 24 -50 43 -111 50 -156 6 -41 13 -80 15 -86 3 -10 73 -13 309
-13 l305 0 0 53 c0 79 -25 211 -59 318 -147 456 -608 929 -1313 1347 -129 77
-409 222 -425 222 -5 -1 -74 -34 -156 -75z m250 -405 c219 -188 250 -337 102
-504 -60 -68 -176 -166 -197 -166 -29 0 -170 128 -222 201 -87 125 -87 210 1
333 39 55 204 206 224 206 5 0 47 -32 92 -70z m-488 -687 c30 -36 85 -91 122
-121 l68 -55 -30 -39 c-67 -84 -179 -158 -242 -158 -52 0 -120 42 -199 122
-47 47 -78 87 -78 100 0 28 143 168 200 196 76 37 97 31 159 -45z m948 46 c52
-25 139 -102 177 -158 28 -40 28 -41 10 -68 -65 -101 -212 -201 -279 -190 -72
12 -157 71 -225 157 l-30 38 59 46 c32 25 87 79 122 121 72 85 90 91 166 54z
m-1513 -384 c68 -104 242 -245 349 -282 83 -29 215 -25 297 9 35 15 65 26 67
24 2 -2 2 -161 1 -354 l-3 -351 -150 60 c-193 76 -485 220 -600 296 -49 33
-109 81 -132 106 -38 41 -43 52 -43 95 0 64 23 147 64 235 36 75 111 187 125
187 5 0 16 -11 25 -25z"/>
<path d="M4628 4978 c-2 -62 -2 -210 0 -329 l3 -215 82 -34 c143 -57 419 -196
515 -259 52 -34 116 -84 143 -112 45 -46 49 -54 49 -99 0 -59 -31 -163 -75
-250 -58 -114 -134 -211 -279 -355 -194 -194 -406 -355 -691 -526 l-129 -79
-53 30 c-416 235 -809 558 -973 800 -88 130 -150 279 -150 358 0 22 -6 45 -14
51 -9 8 -99 11 -307 9 l-294 -3 -3 -55 c-2 -30 4 -98 14 -150 72 -406 378
-817 904 -1213 233 -176 599 -396 816 -491 l61 -27 124 60 c263 127 617 350
849 537 540 434 820 885 820 1319 0 110 -19 193 -64 285 -124 250 -423 482
-886 688 -147 66 -424 172 -448 172 -7 0 -12 -40 -14 -112z"/>
<path d="M6721 1183 c0 -43 8 -181 17 -308 l17 -230 55 -3 c30 -1 60 1 67 6
10 7 37 314 45 532 l3 75 -102 3 -103 3 1 -78z"/>
<path d="M1699 1227 c-102 -43 -159 -106 -178 -197 -18 -84 5 -163 65 -224 37
-36 187 -116 276 -145 85 -28 115 -102 62 -152 -22 -21 -35 -24 -102 -24 -79
0 -123 14 -199 65 l-32 21 -55 -67 -56 -68 22 -23 c38 -41 156 -92 241 -105
145 -22 276 18 356 108 47 54 61 95 61 179 -1 128 -55 185 -258 271 -157 67
-187 90 -178 137 16 85 144 100 263 31 23 -13 43 -24 46 -24 2 0 26 28 52 62
l49 61 -39 33 c-59 52 -134 77 -245 81 -83 3 -102 1 -151 -20z"/>
<path d="M2484 1227 c-3 -8 -4 -47 -2 -88 l3 -74 123 -3 122 -3 0 -369 0 -370
105 0 105 0 0 370 0 369 123 3 122 3 3 88 3 87 -351 0 c-284 0 -352 -3 -356
-13z"/>
<path d="M3600 780 l0 -460 295 0 295 0 0 85 0 85 -192 2 -193 3 -3 65 c-2 36
0 85 3 108 l6 44 67 -2 c37 -1 107 -2 155 -1 l88 1 -3 83 -3 82 -155 5 -155 5
0 85 0 85 180 5 180 5 3 88 3 87 -286 0 -285 0 0 -460z"/>
<path d="M4736 1023 c-38 -120 -102 -323 -142 -452 -41 -128 -74 -237 -74
-242 0 -5 46 -9 103 -9 l103 0 29 110 28 111 141 -3 141 -3 27 -103 c15 -57
29 -106 31 -108 2 -3 52 -3 110 -2 l105 3 -100 320 c-55 176 -119 381 -143
455 l-43 135 -124 3 -124 3 -68 -218z m239 -137 c25 -98 45 -180 45 -182 0 -2
-43 -4 -95 -4 -52 0 -95 4 -95 8 0 6 48 204 85 347 9 37 5 48 60 -169z"/>
<path d="M5707 1234 c-4 -4 -7 -211 -7 -461 l0 -453 285 0 285 0 0 85 0 85
-180 0 -180 0 -2 373 -3 372 -95 3 c-53 1 -99 0 -103 -4z"/>
<path d="M6774 550 c-11 -4 -33 -22 -47 -40 -21 -25 -27 -42 -27 -81 0 -42 5
-55 33 -84 54 -60 151 -55 193 10 23 35 22 116 -1 151 -28 43 -100 65 -151 44z"/>
</g>
</svg>
