<svg width="22" height="36" viewBox="0 0 22 36" fill="none" xmlns="http://www.w3.org/2000/svg">
<path d="M9.95337 0.45915C6.29306 2.32003 2.99756 4.99505 1.44102 7.37625C0.462099 8.86986 0 10.2655 0 11.7163C0 12.512 0.0851235 12.9161 0.401296 13.5404C1.36806 15.4748 4.18929 17.2928 8.50019 18.7497L9.42439 19.0619V21.1003V23.1387H7.05309C4.3413 23.1387 4.55411 23.0897 4.66355 23.7141C4.78516 24.418 5.16213 25.2138 5.73976 25.9545L6.01945 26.3218H7.72192H9.42439V27.6562C9.42439 29.2049 9.33318 28.9968 10.2635 29.5538L10.8897 29.9333L11.0843 29.8293C11.1937 29.7742 11.516 29.5844 11.8139 29.4008C12.3003 29.0947 12.3429 29.0519 12.3429 28.8744C12.3429 28.7642 12.3429 24.6384 12.3429 19.6924C12.3429 13.5282 12.3611 10.7124 12.4098 10.7124C12.4402 10.7124 12.5557 10.7552 12.6652 10.8164C13.3765 11.1837 14.2339 11.1531 15.0608 10.7307C15.4925 10.5104 16.2039 9.90436 16.5687 9.43302C16.7268 9.22489 16.8849 9.05962 16.9092 9.05962C16.9943 9.05962 17.4564 9.78806 17.6996 10.3145C17.8455 10.6206 17.9611 10.994 18.0036 11.2694C18.0401 11.5204 18.0827 11.7591 18.0948 11.7959C18.1131 11.8571 18.5387 11.8754 19.9736 11.8754H21.8281V11.551C21.8281 11.0674 21.6761 10.2594 21.4694 9.60442C20.5756 6.81309 17.7726 3.9177 13.486 1.35899C12.7016 0.887644 10.9992 5.14984e-05 10.9019 5.14984e-05C10.8715 0.00617218 10.4519 0.208176 9.95337 0.45915ZM11.4734 2.93829C12.805 4.0891 12.9935 5.00118 12.0936 6.02344C11.7288 6.43969 11.0235 7.03958 10.8958 7.03958C10.7195 7.03958 9.86216 6.25605 9.54599 5.80919C9.01701 5.04403 9.01701 4.52371 9.55207 3.77079C9.7892 3.43412 10.7924 2.5098 10.914 2.5098C10.9444 2.5098 11.1998 2.70568 11.4734 2.93829ZM8.50627 7.14364C8.68868 7.36401 9.02309 7.70068 9.24806 7.88432L9.66152 8.22099L9.47911 8.45973C9.07173 8.97392 8.39074 9.4269 8.00769 9.4269C7.69152 9.4269 7.27806 9.1698 6.79772 8.6801C6.51195 8.39239 6.32346 8.14754 6.32346 8.06796C6.32346 7.89656 7.19293 7.03958 7.53951 6.86818C8.00161 6.64169 8.12929 6.67842 8.50627 7.14364ZM14.2703 6.86206C14.5865 7.01509 15.1155 7.48644 15.3465 7.82923C15.5168 8.07408 15.5168 8.08021 15.4074 8.24548C15.0121 8.86374 14.1183 9.47587 13.711 9.40853C13.2732 9.33508 12.7564 8.97392 12.3429 8.44748L12.1605 8.21487L12.5192 7.93329C12.7138 7.78026 13.0482 7.44971 13.261 7.19261C13.6988 6.6723 13.8082 6.63557 14.2703 6.86206ZM5.07093 9.21265C5.48439 9.84927 6.54235 10.7124 7.19293 10.9389C7.6976 11.1164 8.50019 11.0919 8.99877 10.8838C9.21158 10.792 9.39398 10.7246 9.40615 10.7369C9.41831 10.7491 9.41831 11.7224 9.41223 12.9038L9.39398 15.0524L8.48195 14.6851C7.30846 14.2199 5.53303 13.3384 4.8338 12.8732C4.53587 12.6712 4.17105 12.3774 4.03121 12.2243C3.80016 11.9734 3.76975 11.906 3.76975 11.6428C3.76975 11.2511 3.9096 10.743 4.15889 10.2043C4.37778 9.74521 4.8338 9.05962 4.91892 9.05962C4.94932 9.05962 5.01621 9.12695 5.07093 9.21265Z" fill="white"/>
<path d="M13.2427 16.9683C13.2306 17.3479 13.2306 18.2538 13.2427 18.9823L13.261 20.2983L13.7595 20.5065C14.629 20.8554 16.3072 21.7062 16.8909 22.0919C17.207 22.3 17.5962 22.6061 17.7603 22.7775C18.034 23.0591 18.0583 23.108 18.0583 23.3835C18.0583 23.7447 17.8698 24.3813 17.6023 24.9138C17.2496 25.6117 16.7875 26.2054 15.9059 27.0869C14.7263 28.2744 13.4373 29.26 11.7044 30.3067L10.9201 30.7903L10.5978 30.6067C8.06843 29.1681 5.67889 27.191 4.68173 25.7096C4.14667 24.9138 3.76969 24.0017 3.76969 23.5182C3.76969 23.3835 3.73321 23.2427 3.68457 23.206C3.62984 23.157 3.08262 23.1386 1.81793 23.1509L0.0303364 23.1692L0.0120956 23.5059C-6.49039e-05 23.6896 0.0364166 24.1058 0.0972191 24.4241C0.534997 26.9094 2.39555 29.4252 5.59377 31.8493C7.01046 32.9266 9.23584 34.2733 10.5553 34.8549L10.9261 35.0201L11.6801 34.6529C13.2792 33.8755 15.4316 32.5104 16.8422 31.3657C20.1256 28.709 21.828 25.9483 21.828 23.2917C21.828 22.6183 21.7125 22.1103 21.4389 21.5471C20.6849 20.0168 18.867 18.5966 16.0518 17.3356C15.158 16.9316 13.4738 16.2827 13.3278 16.2827C13.2853 16.2827 13.2549 16.5276 13.2427 16.9683Z" fill="white"/>
</svg>