<svg width="115" height="36" viewBox="0 0 115 36" fill="none" xmlns="http://www.w3.org/2000/svg">
<path d="M111.821 22.1432C111.623 22.2116 111.227 22.5197 110.975 22.8277C110.598 23.2556 110.49 23.5465 110.49 24.214C110.49 24.9328 110.58 25.1553 111.083 25.6516C112.054 26.6784 113.799 26.5928 114.554 25.4804C114.968 24.8814 114.95 23.4952 114.536 22.8962C114.032 22.1603 112.738 21.7838 111.821 22.1432Z" fill="black"/>
<path d="M110.511 11.3747C110.511 12.1326 110.681 14.5648 110.873 16.8031L111.235 20.8568L112.406 20.9097C113.045 20.9273 113.684 20.892 113.833 20.8039C114.046 20.6805 114.621 15.2698 114.791 11.4276L114.855 10.1058L112.683 10.0529L110.49 10L110.511 11.3747Z" fill="black"/>
<path d="M96.4087 10.0778C96.3475 10.1491 96.3015 13.8391 96.3015 18.2957V26.3711H100.667H105.033V24.8558V23.3406H102.276H99.5183L99.4876 16.6914L99.4417 10.0599L97.9865 10.0065C97.1746 9.98863 96.47 10.0065 96.4087 10.0778Z" fill="black"/>
<path d="M81.4941 13.875C80.835 16.0081 79.7249 19.6165 79.0311 21.9095C78.3199 24.1847 77.7476 26.1222 77.7476 26.2111C77.7476 26.3 78.5454 26.3711 79.5341 26.3711H81.3206L81.8236 24.4158L82.3093 22.4427L84.755 22.4961L87.2006 22.5494L87.6689 24.3803C87.9291 25.3935 88.1719 26.2644 88.2066 26.3C88.2413 26.3533 89.1086 26.3533 90.1146 26.3355L91.9358 26.2822L90.2013 20.5941C89.2473 17.4657 88.1373 13.8217 87.721 12.5063L86.9751 10.1067L84.8243 10.0533L82.6736 10L81.4941 13.875ZM85.6396 16.3103C86.0732 18.0522 86.4201 19.5098 86.4201 19.5454C86.4201 19.5809 85.6743 19.6165 84.7723 19.6165C83.8704 19.6165 83.1245 19.5454 83.1245 19.4743C83.1245 19.3676 83.9571 15.8481 84.5989 13.3062C84.755 12.6485 84.6856 12.453 85.6396 16.3103Z" fill="black"/>
<path d="M64.6506 18.1856V26.3711H69.562H74.4733V24.8585V23.346L71.2768 23.3104L68.0636 23.257L68.0136 22.1004C67.9803 21.4598 68.0136 20.5878 68.0636 20.1786L68.1635 19.3956L69.2789 19.4312C69.8949 19.449 71.0603 19.4668 71.8595 19.449L73.3245 19.4312L73.2746 17.9542L73.2246 16.4951L70.6441 16.4061L68.0636 16.3171V14.8046V13.292L71.0603 13.2031L74.0571 13.1141L74.107 11.5482L74.157 10H69.3955H64.6506V18.1856Z" fill="black"/>
<path d="M48.3312 10.2314C48.2805 10.3737 48.2636 11.0677 48.2974 11.7973L48.3481 13.1141L50.4278 13.1675L52.4906 13.2209V19.7871V26.3711H54.2659H56.0413V19.7871V13.2209L58.121 13.1675L60.1838 13.1141L60.2345 11.5482L60.2852 10H54.3505C49.5486 10 48.3988 10.0534 48.3312 10.2314Z" fill="black"/>
<path d="M36.8665 10.3653C35.0656 11.1094 34.0593 12.1996 33.7239 13.7744C33.4061 15.228 33.8121 16.5951 34.8714 17.6507C35.5247 18.2737 38.1729 19.6581 39.7442 20.1599C41.2449 20.6445 41.7746 21.925 40.8389 22.7903C40.4504 23.1537 40.2209 23.2056 39.038 23.2056C37.6433 23.2056 36.8665 22.9633 35.5247 22.0808L34.9597 21.7174L33.9887 22.8768L33 24.0535L33.3884 24.4516C34.0593 25.1611 36.1426 26.0436 37.6433 26.2686C40.2033 26.6493 42.5161 25.9571 43.9285 24.3996C44.7583 23.4652 45.0055 22.7557 45.0055 21.302C44.9878 19.087 44.0344 18.1006 40.4504 16.6124C37.6786 15.4529 37.1489 15.0549 37.3078 14.2416C37.5903 12.7707 39.8502 12.5111 41.9511 13.7051C42.3572 13.9301 42.7103 14.1205 42.7633 14.1205C42.7986 14.1205 43.2223 13.6359 43.6813 13.0475L44.5464 11.9919L43.8579 11.4209C42.8162 10.521 41.4921 10.0884 39.5324 10.0192C38.067 9.96725 37.7316 10.0019 36.8665 10.3653Z" fill="black"/>
<path d="M9.95337 0.45915C6.29306 2.32003 2.99756 4.99505 1.44102 7.37625C0.462099 8.86986 0 10.2655 0 11.7163C0 12.512 0.0851235 12.9161 0.401296 13.5404C1.36806 15.4748 4.18929 17.2928 8.50019 18.7497L9.42439 19.0619V21.1003V23.1387H7.05309C4.3413 23.1387 4.55411 23.0897 4.66355 23.7141C4.78516 24.418 5.16213 25.2138 5.73976 25.9545L6.01945 26.3218H7.72192H9.42439V27.6562C9.42439 29.2049 9.33318 28.9968 10.2635 29.5538L10.8897 29.9333L11.0843 29.8293C11.1937 29.7742 11.516 29.5844 11.8139 29.4008C12.3003 29.0947 12.3429 29.0519 12.3429 28.8744C12.3429 28.7642 12.3429 24.6384 12.3429 19.6924C12.3429 13.5282 12.3611 10.7124 12.4098 10.7124C12.4402 10.7124 12.5557 10.7552 12.6652 10.8164C13.3765 11.1837 14.2339 11.1531 15.0608 10.7307C15.4925 10.5104 16.2039 9.90436 16.5687 9.43302C16.7268 9.22489 16.8849 9.05962 16.9092 9.05962C16.9943 9.05962 17.4564 9.78806 17.6996 10.3145C17.8455 10.6206 17.9611 10.994 18.0036 11.2694C18.0401 11.5204 18.0827 11.7591 18.0948 11.7959C18.1131 11.8571 18.5387 11.8754 19.9736 11.8754H21.8281V11.551C21.8281 11.0674 21.6761 10.2594 21.4694 9.60442C20.5756 6.81309 17.7726 3.9177 13.486 1.35899C12.7016 0.887644 10.9992 5.14984e-05 10.9019 5.14984e-05C10.8715 0.00617218 10.4519 0.208176 9.95337 0.45915ZM11.4734 2.93829C12.805 4.0891 12.9935 5.00118 12.0936 6.02344C11.7288 6.43969 11.0235 7.03958 10.8958 7.03958C10.7195 7.03958 9.86216 6.25605 9.54599 5.80919C9.01701 5.04403 9.01701 4.52371 9.55207 3.77079C9.7892 3.43412 10.7924 2.5098 10.914 2.5098C10.9444 2.5098 11.1998 2.70568 11.4734 2.93829ZM8.50627 7.14364C8.68868 7.36401 9.02309 7.70068 9.24806 7.88432L9.66152 8.22099L9.47911 8.45973C9.07173 8.97392 8.39074 9.4269 8.00769 9.4269C7.69152 9.4269 7.27806 9.1698 6.79772 8.6801C6.51195 8.39239 6.32346 8.14754 6.32346 8.06796C6.32346 7.89656 7.19293 7.03958 7.53951 6.86818C8.00161 6.64169 8.12929 6.67842 8.50627 7.14364ZM14.2703 6.86206C14.5865 7.01509 15.1155 7.48644 15.3465 7.82923C15.5168 8.07408 15.5168 8.08021 15.4074 8.24548C15.0121 8.86374 14.1183 9.47587 13.711 9.40853C13.2732 9.33508 12.7564 8.97392 12.3429 8.44748L12.1605 8.21487L12.5192 7.93329C12.7138 7.78026 13.0482 7.44971 13.261 7.19261C13.6988 6.6723 13.8082 6.63557 14.2703 6.86206ZM5.07093 9.21265C5.48439 9.84927 6.54235 10.7124 7.19293 10.9389C7.6976 11.1164 8.50019 11.0919 8.99877 10.8838C9.21158 10.792 9.39398 10.7246 9.40615 10.7369C9.41831 10.7491 9.41831 11.7224 9.41223 12.9038L9.39398 15.0524L8.48195 14.6851C7.30846 14.2199 5.53303 13.3384 4.8338 12.8732C4.53587 12.6712 4.17105 12.3774 4.03121 12.2243C3.80016 11.9734 3.76975 11.906 3.76975 11.6428C3.76975 11.2511 3.9096 10.743 4.15889 10.2043C4.37778 9.74521 4.8338 9.05962 4.91892 9.05962C4.94932 9.05962 5.01621 9.12695 5.07093 9.21265Z" fill="black"/>
<path d="M13.2427 16.9683C13.2306 17.3479 13.2306 18.2538 13.2427 18.9823L13.261 20.2983L13.7595 20.5065C14.629 20.8554 16.3072 21.7062 16.8909 22.0919C17.207 22.3 17.5962 22.6061 17.7603 22.7775C18.034 23.0591 18.0583 23.108 18.0583 23.3835C18.0583 23.7447 17.8698 24.3813 17.6023 24.9138C17.2496 25.6117 16.7875 26.2054 15.9059 27.0869C14.7263 28.2744 13.4373 29.26 11.7044 30.3067L10.9201 30.7903L10.5978 30.6067C8.06843 29.1681 5.67889 27.191 4.68173 25.7096C4.14667 24.9138 3.76969 24.0017 3.76969 23.5182C3.76969 23.3835 3.73321 23.2427 3.68457 23.206C3.62984 23.157 3.08262 23.1386 1.81793 23.1509L0.0303364 23.1692L0.0120956 23.5059C-6.49039e-05 23.6896 0.0364166 24.1058 0.0972191 24.4241C0.534997 26.9094 2.39555 29.4252 5.59377 31.8493C7.01046 32.9266 9.23584 34.2733 10.5553 34.8549L10.9261 35.0201L11.6801 34.6529C13.2792 33.8755 15.4316 32.5104 16.8422 31.3657C20.1256 28.709 21.828 25.9483 21.828 23.2917C21.828 22.6183 21.7125 22.1103 21.4389 21.5471C20.6849 20.0168 18.867 18.5966 16.0518 17.3356C15.158 16.9316 13.4738 16.2827 13.3278 16.2827C13.2853 16.2827 13.2549 16.5276 13.2427 16.9683Z" fill="black"/>
</svg>