<svg xmlns="http://www.w3.org/2000/svg" width="32" height="32" viewBox="0 0 32 32"><g class="nc-icon-wrapper"><rect x="2" y="7" width="28" height="18" rx="3" ry="3" fill="#e6e6e6" stroke-width="0"></rect><path d="m27,7H5c-1.657,0-3,1.343-3,3v12c0,1.657,1.343,3,3,3h22c1.657,0,3-1.343,3-3v-12c0-1.657-1.343-3-3-3Zm2,15c0,1.103-.897,2-2,2H5c-1.103,0-2-.897-2-2v-12c0-1.103.897-2,2-2h22c1.103,0,2,.897,2,2v12Z" stroke-width="0" opacity=".15"></path><path d="m27,8H5c-1.105,0-2,.895-2,2v1c0-1.105.895-2,2-2h22c1.105,0,2,.895,2,2v-1c0-1.105-.895-2-2-2Z" fill="#fff" opacity=".2" stroke-width="0"></path><path d="m18.013,11.423c.414-.518.695-1.213.621-1.923-.606.03-1.345.4-1.773.918-.384.444-.724,1.168-.636,1.848.68.059,1.36-.34,1.788-.843" fill="#1a1a1a" stroke-width="0"></path><path d="m18.626,12.399c-.988-.059-1.828.56-2.299.56s-1.194-.531-1.976-.517c-1.017.015-1.96.59-2.476,1.504-1.061,1.829-.28,4.543.752,6.032.501.737,1.105,1.549,1.901,1.52.752-.03,1.047-.487,1.961-.487s1.179.487,1.975.472c.826-.015,1.342-.738,1.843-1.475.575-.84.81-1.652.825-1.696-.015-.015-1.592-.62-1.606-2.434-.015-1.519,1.238-2.241,1.297-2.286-.708-1.046-1.813-1.164-2.196-1.194" fill="#1a1a1a" stroke-width="0"></path></g></svg>