<svg xmlns="http://www.w3.org/2000/svg" width="32" height="32" viewBox="0 0 32 32"><g class="nc-icon-wrapper"><rect x="2" y="7" width="28" height="18" rx="3" ry="3" fill="#fff" stroke-width="0"></rect><path d="m27,7H5c-1.657,0-3,1.343-3,3v12c0,1.657,1.343,3,3,3h22c1.657,0,3-1.343,3-3v-12c0-1.657-1.343-3-3-3Zm2,15c0,1.103-.897,2-2,2H5c-1.103,0-2-.897-2-2v-12c0-1.103.897-2,2-2h22c1.103,0,2,.897,2,2v12Z" stroke-width="0" opacity=".15"></path><path d="m27,8H5c-1.105,0-2,.895-2,2v1c0-1.105.895-2,2-2h22c1.105,0,2,.895,2,2v-1c0-1.105-.895-2-2-2Z" fill="#fff" opacity=".2" stroke-width="0\"></path><path d="m22.79,17.693c-.935,3.75-4.733,6.032-8.483,5.097-3.749-.935-6.031-4.733-5.096-8.483.934-3.75,4.733-6.033,8.482-5.098,3.75.935,6.032,4.734,5.097,8.484Z" fill="#f7931a" stroke-width="0"></path><path d="m19.086,15.003c.139-.931-.57-1.432-1.54-1.766l.315-1.262-.768-.191-.306,1.228c-.202-.05-.409-.098-.615-.145l.308-1.237-.768-.191-.315,1.261c-.167-.038-.331-.076-.49-.115v-.004s-1.058-.264-1.058-.264l-.204.82s.57.131.558.139c.311.078.367.283.358.447l-.862,3.456c-.038.094-.135.236-.352.182.008.011-.558-.139-.558-.139l-.381.879.999.249c.186.047.368.095.548.141l-.318,1.276.767.191.315-1.263c.21.057.413.109.612.159l-.314,1.257.768.191.318-1.274c1.31.248,2.294.148,2.709-1.037.334-.954-.017-1.504-.706-1.863.502-.116.88-.446.981-1.128Zm-1.755,2.461c-.237.954-1.843.438-2.364.309l.422-1.691c.521.13,2.19.387,1.942,1.382Zm.238-2.474c-.217.868-1.553.427-1.987.319l.382-1.533c.434.108,1.83.31,1.604,1.215Z" fill="#fff" stroke-width="0"></path></g></svg>