<svg xmlns="http://www.w3.org/2000/svg" width="32" height="32" viewBox="0 0 32 32"><g class="nc-icon-wrapper"><rect x="2" y="7" width="28" height="18" rx="3" ry="3" fill="#fff" stroke-width="0"></rect><path d="m27,7H5c-1.657,0-3,1.343-3,3v12c0,1.657,1.343,3,3,3h22c1.657,0,3-1.343,3-3v-12c0-1.657-1.343-3-3-3Zm2,15c0,1.103-.897,2-2,2H5c-1.103,0-2-.897-2-2v-12c0-1.103.897-2,2-2h22c1.103,0,2,.897,2,2v12Z" stroke-width="0" opacity=".15"></path><path d="m27,8H5c-1.105,0-2,.895-2,2v1c0-1.105.895-2,2-2h22c1.105,0,2,.895,2,2v-1c0-1.105-.895-2-2-2Z" fill="#fff" opacity=".2" stroke-width="0"></path><path d="m14.897,15.881v2.789h-.9v-6.898h2.339c.57,0,1.11.21,1.53.6.42.36.63.9.63,1.47s-.21,1.08-.63,1.47c-.42.39-.93.6-1.53.6l-1.44-.03h0Zm0-3.269v2.399h1.5c.33,0,.66-.12.87-.36.48-.45.48-1.2.03-1.649l-.03-.03c-.24-.24-.54-.39-.87-.36h-1.5Z" fill="#5f6368" stroke-width="0"></path><path d="m20.565,13.811c.66,0,1.17.18,1.56.54s.57.84.57,1.44v2.879h-.84v-.66h-.03c-.36.54-.87.81-1.47.81-.51,0-.96-.15-1.32-.45-.33-.3-.54-.72-.54-1.17,0-.48.18-.87.54-1.17s.87-.42,1.47-.42c.54,0,.96.09,1.29.3v-.21c0-.3-.12-.6-.36-.78-.24-.21-.54-.33-.87-.33-.51,0-.9.21-1.17.63l-.78-.48c.48-.63,1.11-.93,1.949-.93Zm-1.14,3.419c0,.24.12.45.3.57.21.15.45.24.69.24.36,0,.72-.15.99-.42.3-.27.45-.6.45-.96-.27-.21-.66-.33-1.17-.33-.36,0-.66.09-.9.27-.24.15-.36.36-.36.63Z" fill="#5f6368" stroke-width="0"></path><path d="m27.553,13.961l-2.969,6.808h-.9l1.11-2.369-1.949-4.409h.96l1.41,3.389h.03l1.38-3.389h.93v-.03Z" fill="#5f6368" stroke-width="0"></path><path d="m12.232,15.281c0-.27-.03-.54-.06-.81h-3.749v1.53h2.129c-.09.48-.36.93-.78,1.2v.99h1.29c.75-.69,1.17-1.709,1.17-2.909Z" fill="#4285f4" stroke-width="0"></path><path d="m8.424,19.15c1.08,0,1.979-.36,2.639-.96l-1.29-.99c-.36.24-.81.39-1.35.39-1.02,0-1.919-.69-2.219-1.649h-1.32v1.02c.69,1.35,2.039,2.189,3.539,2.189Z" fill="#34a853" stroke-width="0"></path><path d="m6.204,15.941c-.18-.48-.18-1.02,0-1.53v-1.02h-1.32c-.57,1.11-.57,2.429,0,3.569l1.32-1.02Z" fill="#fbbc04" stroke-width="0"></path><path d="m8.424,12.792c.57,0,1.11.21,1.53.6h0l1.14-1.14c-.72-.66-1.679-1.05-2.639-1.02-1.5,0-2.879.84-3.539,2.189l1.32,1.02c.27-.96,1.17-1.649,2.189-1.649Z" fill="#ea4335" stroke-width="0"></path></g></svg>