<?xml version="1.0" encoding="UTF-8" standalone="no"?>
<!-- Created with Inkscape (http://www.inkscape.org/) -->
<svg xmlns="http://www.w3.org/2000/svg" width="600" height="600">
  <defs>
  </defs>
  <path
     style="fill:#FCA100"
     d="M 588.0059,587.98784 L 12.01223,587.98784 L 12.01223,11.99416 L 588.0059,11.99416 L 588.0059,587.98784 z" />
  <path
     d="M 237.78104,325.27105 C 242.13781,331.03892 240.77963,333.27905 236.36994,336.61277 L 226.91557,324.05398 C 232.06608,320.20873 234.09454,320.34984 237.78104,325.27105 M 472.00611,477.79339 C 476.39816,483.56126 474.98706,485.83666 470.63028,489.15275 L 461.15827,476.61159 C 466.32643,472.73107 468.35488,472.92509 472.00611,477.79339 M 261.15239,197.95449 C 265.52681,203.72237 264.15098,205.99777 259.75893,209.31385 L 250.3222,196.7727 C 255.43744,192.90981 257.46589,193.0862 261.15239,197.95449 M 155.72554,58.026228 C 160.06467,63.794101 158.72413,66.051862 154.34971,69.367949 L 144.89534,56.826792 C 149.99294,52.963904 152.03904,53.140292 155.72554,58.026228 M 85.576197,439.97589 C 89.915332,445.74377 88.574786,447.98389 84.182735,451.31761 L 74.710722,438.75882 C 79.843601,434.91357 81.872058,435.05468 85.576197,439.97589 M 284.54139,70.63794 C 288.88052,76.388175 287.53998,78.681213 283.13029,81.979661 L 273.71119,69.420865 C 278.82643,65.575616 280.85489,65.734365 284.54139,70.63794 M 343.22554,465.19932 C 347.56467,470.94955 346.17121,473.22495 341.7968,476.54104 L 332.34242,463.99988 C 337.45766,460.13699 339.50376,460.29574 343.22554,465.19932 M 366.61453,337.88276 C 370.93602,343.65064 369.61312,345.92604 365.18579,349.22448 L 355.74905,336.66569 C 360.89957,332.82044 362.89275,332.97919 366.61453,337.88276 M 518.81937,223.17792 C 523.15851,228.94579 521.80032,231.22119 517.40827,234.51964 L 507.97154,221.96084 C 513.10441,218.1156 515.11523,218.29198 518.81937,223.17792 M 413.37488,83.249651 C 417.71401,89.017525 416.37346,91.275286 411.98141,94.591373 L 402.54468,82.050216 C 407.65992,78.187328 409.68838,78.346077 413.37488,83.249651 M 389.98588,210.56621 C 394.32502,216.33408 392.98447,218.60948 388.59242,221.90793 L 379.15569,209.36677 C 384.23565,205.50388 386.29938,205.68027 389.98588,210.56621 M 542.20836,95.861363 C 546.5475,101.62924 545.20695,103.887 540.83254,107.18545 L 531.32525,94.644289 C 536.49341,90.781401 538.52186,90.957789 542.20836,95.861363 M 108.96519,312.65934 C 113.30432,318.42721 111.96378,320.68497 107.58937,324.00106 L 98.134993,311.42462 C 103.25023,307.59701 105.27869,307.75576 108.96519,312.65934 M 214.39205,452.58761 C 218.73118,458.35548 217.39064,460.5956 212.99859,463.92933 L 203.56185,451.37053 C 208.67709,447.52528 210.70555,447.68403 214.39205,452.58761 M 495.3951,350.49447 C 499.78715,356.26235 498.41133,358.52011 494.01928,361.8362 L 484.58254,349.29504 C 489.68014,345.43215 491.7086,345.5909 495.3951,350.49447 M 16.061852,44.21508 L 25.516226,56.773876 C 29.908277,53.44015 31.248823,51.182389 26.909688,45.432154 C 23.205549,40.52858 21.194731,40.352192 16.061852,44.21508 M 132.33654,185.36042 C 136.71096,191.1283 135.33513,193.38606 130.94308,196.71978 L 121.48871,184.14335 C 126.60395,180.2981 128.63241,180.43921 132.33654,185.36042 M 583.67708,12.006708 L 567.73165,12.006708 L 573.51716,19.661929 L 583.67708,12.006708 z M 290.76787,13.364892 L 289.74482,12.006708 L 268.34901,12.006708 L 277.08019,23.648288 L 290.76787,13.364892 z M 343.34901,42.839257 C 358.74764,63.229661 366.12064,67.621712 379.68485,57.373593 C 383.74176,54.322088 385.94661,50.847253 386.98729,46.225898 L 390.97365,47.513528 L 397.97624,42.257178 L 376.29821,13.470725 L 359.20625,26.329379 L 366.49106,36.013058 L 369.91298,33.42016 L 373.75823,38.553039 C 376.10418,41.65746 375.57502,43.985776 373.45837,45.590903 C 371.34172,47.160753 368.96048,47.037281 366.61453,43.950499 L 348.83466,20.314563 C 346.48871,17.210142 347.01787,14.864187 349.09924,13.294337 C 351.21589,11.68921 353.6324,11.795043 355.97836,14.899464 L 358.25376,17.950969 L 366.12064,12.006708 L 333.1538,12.006708 C 329.73189,19.803039 333.03033,29.151581 343.34901,42.839257 M 419.60136,25.976604 L 409.05338,12.006708 L 387.63993,12.006708 L 405.91368,36.277639 L 419.60136,25.976604 z M 472.20013,55.450969 C 487.54585,75.841373 494.93649,80.233424 508.5007,70.002944 C 512.57525,66.9338 514.81537,63.441326 515.82078,58.855249 L 519.80714,60.12524 L 526.80973,54.851251 L 505.1317,26.117714 L 488.07502,38.95873 L 495.32455,48.62477 L 498.72883,46.049511 L 502.57408,51.147112 C 504.93767,54.269172 504.40851,56.597488 502.27422,58.184976 C 500.15757,59.772465 497.77633,59.666632 495.44802,56.562211 L 477.61523,32.908636 C 475.28692,29.821854 475.83372,27.475899 477.96801,25.906049 C 480.08466,24.300922 482.46589,24.406755 484.79421,27.511176 L 487.05197,30.545043 L 500.73964,20.244008 C 497.56467,16.081261 495.3951,13.647112 493.08442,12.200734 C 492.94331,12.094902 492.78456,12.094902 492.64345,12.006708 L 475.18108,12.006708 C 473.39957,12.888646 471.58278,13.946971 469.9071,15.234601 C 456.74858,25.129944 457.43649,35.907225 472.20013,55.450969 M 548.39957,38.570677 L 528.37958,12.006708 L 506.98376,12.006708 L 534.74717,48.871712 L 548.39957,38.570677 z M 71.077138,69.2092 L 101.46872,46.296453 L 93.143224,35.219313 L 76.368766,47.831025 L 68.766461,37.724017 L 81.942613,27.793396 L 73.564203,16.680979 L 60.40569,26.629238 L 53.773517,17.845137 L 61.516931,12.006708 L 39.309735,12.006708 L 32.077844,17.457084 L 71.077138,69.2092 z M 199.91063,81.838551 L 230.30221,58.908165 L 221.9238,47.813387 L 205.18462,60.442737 L 197.56467,50.353368 L 210.74082,40.422747 L 202.36241,29.31033 L 189.22154,39.223312 L 182.58937,30.43921 L 198.51716,18.427216 L 193.70178,12.006708 L 184.84713,12.006708 L 160.87606,30.051157 L 199.91063,81.838551 z M 250.85136,44.797159 C 254.92591,41.728015 257.16604,38.25318 258.15381,33.631825 L 262.1578,34.901816 L 269.14275,29.645466 L 255.87841,12.006708 L 232.71872,12.006708 L 230.42568,13.752945 L 237.67521,23.383707 L 241.09713,20.826087 L 244.97765,25.958965 C 247.28833,29.045748 246.74153,31.391703 244.62488,32.979191 C 242.50823,34.566679 240.12699,34.443208 237.78104,31.321148 L 223.2467,12.006708 L 204.05573,12.006708 C 205.71378,17.174864 209.17097,23.119125 214.51552,30.227545 C 229.91415,50.617949 237.28715,55.01 250.85136,44.797159 M 122.03551,32.185447 C 126.11006,29.098664 128.33255,25.623829 129.33796,21.037752 L 133.32432,22.272465 L 140.30926,17.016115 L 136.55221,12.006708 L 115.15639,12.006708 L 116.14416,13.329615 C 118.45484,16.451675 117.92568,18.762352 115.80903,20.34984 C 113.69238,21.954967 111.31115,21.831496 108.96519,18.727075 L 103.90287,12.006708 L 81.783864,12.006708 C 82.9833,13.8235 84.235652,15.640292 85.717307,17.615833 C 101.0983,38.023876 108.47131,42.398288 122.03551,32.185447 M 539.80949,512.33008 L 578.8617,564.09983 L 587.99858,557.1678 L 587.99858,547.85454 L 553.49717,502.02904 L 539.80949,512.33008 z M 504.12629,569.74424 L 490.95013,579.67486 L 484.3356,570.87312 L 500.24576,558.87876 L 492.22012,548.20731 L 462.62229,570.5027 L 475.81608,588.00035 L 502.99741,588.00035 L 512.5047,580.85665 L 504.12629,569.74424 z M 559.8824,574.06573 L 563.90404,575.31808 L 570.88898,570.07937 L 549.24623,541.31056 L 532.15427,554.18685 L 539.4038,563.83525 L 542.82572,561.25999 L 546.70625,566.39287 C 549.0522,569.46202 548.47012,571.80797 546.35347,573.39546 C 544.25446,575.00059 541.85559,574.87711 539.56255,571.79033 L 521.72977,548.13676 C 519.38381,545.0147 519.91297,542.70402 522.02963,541.09889 C 524.12864,539.5114 526.52751,539.63488 528.87346,542.7393 L 531.14886,545.77316 L 544.80126,535.47213 C 541.66156,531.29174 539.492,528.87523 537.2166,527.41122 C 529.94943,522.70167 521.30644,524.92415 514.00399,530.44508 C 500.8102,540.35807 501.51575,551.11771 516.26175,570.66145 C 522.84101,579.375 527.95625,585.0194 532.71871,588.00035 L 548.29374,588.00035 C 549.70484,587.22425 551.11594,586.34231 552.61523,585.21343 C 556.63687,582.16192 558.87699,578.66945 559.8824,574.06573 M 441.738,586.2012 L 439.33913,588.00035 L 469.32502,588.00035 C 460.66439,577.48765 452.32125,578.24612 441.738,586.2012 M 304.10277,580.27457 L 293.80174,588.00035 L 335.55268,588.00035 C 334.68838,586.48342 334.1063,585.07232 332.83631,583.379 C 323.75235,571.33172 315.16227,571.93144 304.10277,580.27457 M 361.67568,584.80774 L 374.83419,574.87711 L 366.49106,563.7647 L 353.33254,573.71296 L 346.66509,564.91122 L 362.62817,552.89922 L 354.5849,542.22777 L 324.96942,564.5408 L 342.64346,588.00035 L 364.07455,588.00035 L 361.67568,584.80774 z M 204.02046,570.78492 C 194.95414,558.73765 186.34642,559.31973 175.28692,567.66286 L 159.92356,579.23389 L 166.50282,588.00035 L 187.1578,588.00035 L 180.15522,578.70472 C 185.27046,574.80656 187.31655,575.00059 191.00305,579.88652 C 193.87817,583.69649 194.0722,585.93662 192.74929,588.00035 L 208.67709,588.00035 C 210.5468,582.95567 209.24153,577.71695 204.02046,570.78492 M 257.18367,569.65604 L 240.44449,582.28539 L 232.87747,572.21366 L 246.0007,562.2654 L 237.67521,551.18826 L 224.49906,561.10124 L 217.86688,552.2995 L 233.79468,540.28751 L 225.75141,529.61606 L 196.13593,551.92909 L 223.3349,588.00035 L 255.98424,588.00035 L 265.57972,580.76846 L 257.18367,569.65604 z M 378.45014,588.00035 L 390.3563,588.00035 L 386.01716,582.28539 L 378.45014,588.00035 z M 578.57948,483.1203 L 587.99858,495.60854 L 587.99858,476.01188 L 578.57948,483.1203 z M 554.37911,391.6457 L 587.99858,436.25412 L 587.99858,407.83808 L 568.06678,381.3623 L 554.37911,391.6457 z M 570.09524,306.22119 L 577.36241,315.86959 L 580.78433,313.29433 L 584.64722,318.40957 C 586.99317,321.51399 586.42873,323.84231 584.29444,325.4298 C 582.19543,327.03493 579.83184,326.91145 577.48588,323.78939 L 559.68837,300.15346 C 557.34242,297.04904 557.88922,294.73836 559.98823,293.13323 C 562.10488,291.54574 564.50375,291.66922 566.83207,294.756 L 569.08983,297.8075 L 582.77751,287.48883 C 579.63781,283.32608 577.43296,280.90957 575.15756,279.44556 C 567.92567,274.73601 559.26504,276.94085 551.9626,282.47942 C 538.78645,292.39241 539.50963,303.15205 554.238,322.69579 C 568.57831,341.74565 576.05714,346.66686 587.99858,338.88817 L 587.99858,294.47378 L 587.15192,293.3449 L 570.09524,306.22119 z M 575.33395,155.12759 C 562.17544,165.07585 562.88099,175.83549 577.62699,195.37924 C 581.50752,200.56503 584.89416,204.67486 587.99858,207.8322 L 587.99858,179.39852 L 583.07737,172.85454 C 580.73141,169.75012 581.27821,167.4218 583.39486,165.85196 C 584.84124,164.74071 586.42873,164.52905 587.99858,165.4639 L 587.99858,149.81832 C 583.69472,150.27693 579.33795,152.129 575.33395,155.12759 M 569.07219,68.274346 L 584.99999,56.262352 L 576.93908,45.590903 L 547.39416,67.903932 L 586.39345,119.65605 L 587.99858,118.43897 L 587.99858,93.409576 L 584.0475,88.170865 L 587.99858,85.189915 L 587.99858,67.780461 L 575.66909,77.058447 L 569.07219,68.274346 z M 587.99858,277.91098 L 587.99858,256.621 L 577.78574,264.32914 L 587.99858,277.91098 z M 568.29609,225.57679 L 560.67614,215.48742 L 573.81702,205.5568 L 565.47389,194.47966 L 552.31537,204.39264 L 545.70084,195.5909 L 561.611,183.61418 L 553.56772,172.9251 L 524.00517,195.22049 L 563.00446,246.99024 L 587.99858,228.11677 L 587.99858,216.9338 L 584.99999,212.94744 L 568.29609,225.57679 z M 51.321729,566.05774 L 60.776103,578.63417 C 65.168154,575.30044 66.543977,573.04268 62.187204,567.29245 C 58.500704,562.38887 56.454608,562.23012 51.321729,566.05774 M 12.004938,197.19603 L 12.004938,223.46014 L 24.61665,213.91757 L 12.004938,197.19603 z M 22.923329,260.44861 L 14.897694,249.77717 L 12.004938,251.96437 L 12.004938,268.66828 L 22.923329,260.44861 z M 16.538098,163.59419 C 15.021165,161.56574 13.521871,160.0488 12.004938,158.70826 L 12.004938,191.72801 C 24.228597,182.41475 25.480949,175.46508 16.538098,163.59419 M 22.958606,417.15134 L 12.004938,425.38864 L 12.004938,442.78046 L 31.337016,428.22848 L 22.958606,417.15134 z M 54.708371,300.91193 L 46.347599,289.81715 L 29.608418,302.4465 L 22.006113,292.35713 L 35.182266,282.42651 L 26.803856,271.31409 L 13.627703,281.26235 L 12.004938,279.09278 L 12.004938,307.52646 L 24.299152,323.84231 L 54.708371,300.91193 z M 51.886169,414.11747 C 55.943084,411.04833 58.147929,407.55586 59.170976,402.96978 L 63.192613,404.22213 L 70.177561,398.96578 L 48.499528,370.19697 L 31.407571,383.07326 L 38.692378,392.72166 L 42.114298,390.1464 L 45.977186,395.27928 C 48.305502,398.36606 47.7587,400.71202 45.659688,402.31714 C 43.525398,403.90463 41.144166,403.76352 38.833489,400.67674 L 21.000704,377.02317 C 18.672388,373.91874 19.201551,371.59043 21.318202,369.9853 C 23.434853,368.39781 25.816085,368.53892 28.16204,371.62571 L 30.43744,374.65957 L 44.089838,364.39382 C 40.932501,360.17815 38.745295,357.77928 36.505172,356.29763 C 29.238004,351.60572 20.595013,353.81056 13.274928,359.33149 C 12.781043,359.68427 12.463545,360.07232 12.004938,360.42509 L 12.004938,394.52081 C 13.116179,396.14358 14.209782,397.78398 15.550328,399.54786 C 30.931325,419.97354 38.304326,424.36559 51.886169,414.11747 M 78.097364,173.61301 L 69.736593,162.51823 L 52.979772,175.16522 L 45.395106,165.04057 L 58.55362,155.09231 L 50.192849,144.01517 L 37.016696,153.92815 L 30.384523,145.12641 L 46.312322,133.13206 L 38.269048,122.46061 L 12.004938,142.26894 L 12.004938,149.18333 L 47.705784,196.54339 L 78.097364,173.61301 z M 34.847129,96.531636 L 12.004938,66.210611 L 12.004938,32.661694 C 22.658747,24.883001 31.072435,24.547865 39.909453,36.277639 C 48.922858,48.254356 47.670506,55.204026 35.164627,64.640762 L 32.783395,66.422276 L 48.005643,86.601016 L 34.847129,96.531636 z M 20.700845,491.67509 C 17.561146,487.47707 15.37394,485.06056 13.098541,483.61418 C 12.745765,483.38488 12.357713,483.3496 12.004938,483.17321 L 12.004938,498.23671 L 20.700845,491.67509 z M 128.36782,557.06197 L 111.66392,569.65604 L 104.06162,559.60195 L 117.23777,549.65369 L 108.85936,538.54127 L 95.683206,548.48953 L 89.033394,539.70543 L 104.97883,527.6758 L 96.953196,517.00435 L 67.35536,539.29974 L 104.02634,588.00035 L 110.42921,588.00035 L 136.74623,568.15675 L 128.36782,557.06197 z M 70.424504,586.50106 L 68.448963,588.00035 L 47.211899,588.00035 L 31.107713,566.62218 L 46.471071,555.05115 C 57.530572,546.70802 66.120647,546.12594 75.186969,558.13793 C 84.235652,570.11465 82.948022,577.06432 70.424504,586.50106 M 28.497176,541.41639 C 32.571729,538.36489 34.776574,534.87241 35.781983,530.2687 L 39.80362,531.53869 L 46.77093,526.2647 L 25.110535,497.51352 L 12.004938,507.37359 L 12.004938,515.64617 L 15.321024,520.03822 L 18.725304,517.46296 L 22.570554,522.59584 C 24.916508,525.68262 24.369707,528.01093 22.270695,529.59842 C 20.154044,531.18591 17.772811,531.08008 15.426857,527.97566 L 12.004938,523.46013 L 12.004938,545.879 C 17.120177,547.66051 22.129585,546.21413 28.497176,541.41639 M 578.43837,454.72189 L 585.47624,449.41263 L 563.7982,420.64381 L 546.70625,433.50247 L 553.99105,443.20379 L 557.41297,440.61089 L 561.25822,445.70849 C 563.60418,448.84819 563.07502,451.15887 560.95836,452.74635 C 558.84171,454.3162 556.46048,454.22801 554.11453,451.10595 L 536.28174,427.45238 C 533.93579,424.36559 534.46495,422.03728 536.59924,420.44979 C 538.71589,418.8623 541.07948,418.96813 543.44308,422.07255 L 545.70084,425.10642 L 559.38851,414.80539 C 556.23118,410.625 554.04397,408.20849 551.76857,406.74447 C 544.5014,402.03492 535.85841,404.25741 528.5736,409.7607 C 515.39745,419.69132 516.12064,430.45096 530.849,450.01235 C 546.19472,470.40275 553.56772,474.77716 567.14957,464.56432 C 571.24176,461.49518 573.4466,458.0027 574.43438,453.39899 L 578.43837,454.72189 z M 546.58278,478.69297 L 538.23964,467.58055 L 521.48282,480.19226 L 513.89816,470.12053 L 527.07431,460.17227 L 518.6959,449.09513 L 505.50211,459.00811 L 498.8523,450.22401 L 514.81537,438.21202 L 506.78974,427.52293 L 477.1919,449.83596 L 516.1912,501.60571 L 546.58278,478.69297 z M 493.08442,518.97989 L 477.91509,498.80115 L 480.26105,497.01964 C 492.78456,487.60054 494.07219,480.66851 485.02351,468.69179 C 475.97483,456.64452 467.34948,457.24424 456.28997,465.56973 L 440.96189,477.12312 L 479.96119,528.91051 L 493.08442,518.97989 z M 454.82596,547.8369 L 415.82666,496.06714 L 402.1919,506.35054 L 441.1912,558.12029 L 454.82596,547.8369 z M 433.21848,564.11747 L 411.57572,535.33102 L 394.48377,548.20731 L 401.76857,557.85571 L 405.19049,555.31573 L 409.03574,560.41333 C 411.3817,563.48248 410.83489,565.84607 408.73588,567.4512 C 406.61923,569.03869 404.238,568.89758 401.89204,565.81079 L 384.05926,542.15722 C 381.74858,539.07044 382.29538,536.74212 384.41204,535.15463 C 386.49341,533.56714 388.90992,533.67298 391.25587,536.7774 L 393.51363,539.79362 L 407.13076,529.51023 C 403.99106,525.32984 401.82149,522.91333 399.54609,521.44932 C 392.33184,516.72213 383.67121,518.96225 376.33348,524.46554 C 363.17497,534.39616 363.89816,545.15581 378.59125,564.69955 C 394.00752,585.08996 401.39816,589.48201 414.94473,579.26917 C 419.01928,576.18238 421.20648,572.67227 422.24717,568.08619 L 426.23353,569.33854 L 433.21848,564.11747 z M 387.35771,488.97636 L 417.8022,466.08126 L 409.40616,454.96884 L 392.68461,467.59819 L 385.06467,457.50882 L 398.22318,447.56056 L 389.86241,436.50106 L 376.68626,446.3964 L 370.08936,437.6123 L 386.01716,425.58267 L 377.95625,414.91122 L 348.35841,437.22425 L 387.35771,488.97636 z M 364.32149,506.36818 L 349.06396,486.18944 L 351.4452,484.40792 C 363.96871,474.98883 365.23871,468.02152 356.20766,456.08008 C 347.14134,444.05045 338.53363,444.61489 327.47412,452.95802 L 312.09313,464.52904 L 351.14534,516.31644 L 364.32149,506.36818 z M 326.04539,535.22519 L 287.01081,483.45543 L 273.35841,493.73883 L 312.35771,545.50858 L 326.04539,535.22519 z M 304.42027,551.50576 L 282.7246,522.73695 L 265.68556,535.5956 L 272.93508,545.26164 L 276.357,542.70402 L 280.20225,547.80162 C 282.54821,550.90604 282.00141,553.252 279.90239,554.83949 C 277.78574,556.42697 275.40451,556.26822 273.05856,553.19908 L 255.24341,529.54551 C 252.91509,526.44108 253.4619,524.13041 255.56091,522.54292 C 257.6952,520.95543 260.07643,521.06126 262.40475,524.16569 L 264.68015,527.16427 L 278.36782,516.89852 C 275.17521,512.71813 272.988,510.30162 270.74788,508.8376 C 263.49835,504.12806 254.83772,506.35054 247.5,511.85383 C 234.37676,521.78445 235.06467,532.5441 249.7754,552.10548 C 265.13875,572.4606 272.56467,576.87029 286.12888,566.65745 C 290.20343,563.58831 292.39063,560.09584 293.37841,555.5274 L 297.41768,556.76211 L 304.42027,551.50576 z M 258.57714,476.36465 L 288.96872,453.4519 L 280.60794,442.35713 L 263.85112,454.96884 L 256.26646,444.89711 L 269.40733,434.94885 L 261.08184,423.85407 L 247.90569,433.78469 L 241.25588,425.00059 L 257.18367,412.97095 L 249.12276,402.31714 L 219.54256,424.63017 L 258.57714,476.36465 z M 235.488,493.75647 L 220.26575,473.57773 L 222.61171,471.79621 C 235.13523,462.35948 236.40522,455.42745 227.42709,443.43309 C 218.30785,431.4211 209.75305,432.00317 198.69355,440.34631 L 183.31256,451.93497 L 222.31185,503.70473 L 235.488,493.75647 z M 197.22954,522.61347 L 158.23024,470.84372 L 144.54257,481.12712 L 183.54186,532.89687 L 197.22954,522.61347 z M 175.62206,538.87641 L 153.92638,510.12523 L 136.85207,522.98389 L 144.11924,532.61465 L 147.54115,530.07467 L 151.42168,535.20755 C 153.73236,538.27669 153.18556,540.64029 151.08654,542.22777 C 148.96989,543.79762 146.58866,543.67415 144.24271,540.58737 L 126.4452,516.93379 C 124.11688,513.84701 124.64605,511.53633 126.7627,509.93121 C 128.86171,508.30844 131.24294,508.43191 133.5889,511.55397 L 135.8643,514.5702 L 149.53433,504.2868 C 146.39463,500.08878 144.20743,497.70755 141.93203,496.19062 C 134.66486,491.51634 126.03951,493.73883 118.68415,499.24212 C 105.56091,509.19038 106.2841,519.93238 120.99482,539.45849 C 136.35818,559.88417 143.73118,564.25858 157.29539,554.04574 C 161.36994,550.94132 163.59242,547.48412 164.59783,542.88041 L 168.58419,544.13276 L 175.62206,538.87641 z M 129.76129,463.77058 L 160.13523,440.84019 L 151.77446,429.76305 L 135.01764,442.35713 L 127.41533,432.28539 L 140.59148,422.35477 L 132.21307,411.24236 L 119.0722,421.17298 L 112.42239,412.37124 L 128.36782,400.39452 L 120.34219,389.72307 L 90.726715,411.98318 L 129.76129,463.77058 z M 106.67215,481.14475 L 91.449904,461.00129 L 93.795858,459.1845 C 106.31938,449.74777 107.58937,442.81573 98.558323,430.85666 C 89.492001,418.80938 80.901926,419.39146 69.842425,427.7346 L 54.479067,439.32326 L 93.496,491.09301 L 106.67215,481.14475 z M 68.413686,510.00176 L 29.396753,458.23201 L 15.726716,468.5154 L 54.726009,520.28516 L 68.413686,510.00176 z M 78.115003,392.98624 L 91.802679,382.68521 L 52.768107,330.91545 L 39.115709,341.21649 L 78.115003,392.98624 z M 75.257524,286.78328 C 79.332077,283.73177 81.55456,280.2393 82.542331,275.65322 L 86.581606,276.92321 L 93.566555,271.64923 L 71.888521,242.88041 L 54.796565,255.7567 L 62.081372,265.40511 L 65.485652,262.86512 L 69.366179,267.96273 C 71.694495,271.06715 71.147693,273.37782 69.048681,274.98295 C 66.93203,276.57044 64.550798,276.44697 62.204843,273.36019 L 44.407336,249.70661 C 42.061381,246.58455 42.590544,244.27387 44.707195,242.68639 C 46.806207,241.08126 49.205078,241.20473 51.533394,244.34443 L 53.826433,247.34302 L 67.478832,237.05962 C 64.339133,232.87924 62.116649,230.46273 59.876527,228.99871 C 52.644636,224.28916 43.966367,226.49401 36.646283,232.01494 C 23.505408,241.92792 24.210958,252.7052 38.921682,272.2313 C 54.302679,292.63935 61.67568,297.0314 75.257524,286.78328 M 62.522341,213.89993 L 101.52163,265.66969 L 115.15639,255.38629 L 76.1571,203.5989 L 62.522341,213.89993 z M 98.681794,159.48436 C 102.70343,156.41522 104.94355,152.92275 105.93132,148.33667 L 109.9706,149.60666 L 116.95555,144.33267 L 95.259875,115.56386 L 78.203196,128.44015 L 85.452726,138.08855 L 88.874645,135.53093 L 92.755172,140.64617 C 95.101127,143.75059 94.554325,146.07891 92.437674,147.68403 C 90.303384,149.25388 87.922152,149.13041 85.576197,146.02599 L 67.77869,122.37242 C 65.432736,119.28563 65.997176,116.95732 68.096188,115.36983 C 70.212839,113.78234 72.594071,113.88817 74.922387,116.9926 L 77.197787,120.02646 L 90.867825,109.72543 C 87.728126,105.54504 85.523281,103.14617 83.283159,101.66451 C 76.01599,96.954966 67.372999,99.17745 60.052914,104.69838 C 46.894401,114.629 47.599951,125.38864 62.328314,144.91475 C 77.691672,165.32279 85.082312,169.71484 98.681794,159.48436 M 85.876056,86.583377 L 124.87535,138.35313 L 138.54539,128.0521 L 99.563732,76.282342 L 85.876056,86.583377 z M 124.64605,57.373593 L 163.64534,109.14335 L 176.82149,99.195089 L 161.59924,79.033988 L 163.9452,77.270113 C 176.46872,67.833377 177.73871,60.866068 168.76058,48.90699 C 159.64134,36.859718 151.08654,37.459436 140.0094,45.802568 L 124.64605,57.373593 z M 179.0087,156.59161 L 165.83255,166.53987 L 159.21801,157.73813 L 175.12817,145.72613 L 167.10254,135.05468 L 137.52234,157.36771 L 176.52163,209.13747 L 206.93085,186.24236 L 198.57008,175.12994 L 181.81326,187.75929 L 174.21096,177.66992 L 187.38711,167.72166 L 179.0087,156.59161 z M 191.14416,157.5441 C 206.50752,177.96978 213.89816,182.32656 227.49764,172.09608 C 231.51928,169.02693 233.74176,165.53446 234.76481,160.93074 L 238.78645,162.21837 L 245.78904,156.94438 L 224.07573,128.17557 L 207.00141,141.03422 L 214.26858,150.70026 L 217.69049,148.125 L 221.58866,153.25788 C 223.93461,156.34466 223.3349,158.67298 221.27116,160.26047 C 219.11923,161.8656 216.738,161.74212 214.39205,158.62006 L 196.59454,134.98413 C 194.24859,131.89735 194.79539,129.56903 196.91204,127.9639 C 199.02869,126.37641 201.40992,126.49989 203.75588,129.60431 L 206.03128,132.62054 L 219.68367,122.33714 C 216.54398,118.15675 214.35677,115.74024 212.09901,114.27623 C 204.83184,109.56668 196.17121,111.78916 188.8864,117.29245 C 175.71025,127.22308 176.43344,138.00036 191.14416,157.5441 M 214.69191,99.17745 L 253.6912,150.9472 L 267.37888,140.68145 L 228.37958,88.894054 L 214.69191,99.17745 z M 253.4619,69.967667 L 292.46119,121.75506 L 305.63734,111.82444 L 290.41509,91.628062 L 292.76105,89.864186 C 305.30221,80.42745 306.5722,73.495418 297.54115,61.518702 C 288.45719,49.47143 279.90239,50.071148 268.82525,58.396641 L 253.4619,69.967667 z M 289.6919,42.680508 L 328.74412,94.432624 L 359.11806,71.537516 L 350.73965,60.40746 L 334.03574,73.036811 L 326.39816,62.947441 L 339.57431,53.01682 L 331.1959,41.922041 L 318.05503,51.852662 L 311.40522,43.050922 L 327.35065,31.038928 L 319.32502,20.34984 L 289.6919,42.680508 z M 357.17779,101.48813 L 343.52539,111.78916 L 382.52469,163.57656 L 396.19473,153.27552 L 357.17779,101.48813 z M 382.29538,82.597017 L 421.29468,134.36677 L 434.47083,124.41851 L 419.24858,104.25741 L 421.59454,102.4759 C 434.11806,93.056801 435.42332,86.10713 426.40992,74.130414 C 417.32596,62.083142 408.73588,62.68286 397.67638,71.008353 L 382.29538,82.597017 z M 418.52539,55.274581 L 457.50705,107.04434 L 487.95154,84.149228 L 479.5555,73.036811 L 462.83395,85.648523 L 455.24929,75.576792 L 468.37252,65.646171 L 460.06467,54.533753 L 446.88852,64.446735 L 440.2387,55.662634 L 456.1665,43.65064 L 448.15851,32.979191 L 418.52539,55.274581 z M 486.02892,114.09984 L 472.34124,124.40087 L 511.39345,176.18827 L 525.02821,165.88723 L 486.02892,114.09984 z M 511.12887,95.208729 L 550.12817,146.97848 L 563.30432,137.04786 L 548.08207,116.85149 L 550.42803,115.06997 C 562.95154,105.63324 564.22153,98.701203 555.19049,86.724487 C 546.12417,74.677215 537.51645,75.276933 526.50987,83.620065 L 511.12887,95.208729 z M 503.0856,210.95426 L 487.72224,222.54292 L 526.72153,274.29504 L 539.91533,264.36442 L 524.69308,244.18568 L 527.07431,242.40416 C 539.56255,232.96743 540.83254,226.01776 531.81914,214.07632 C 522.73518,202.02905 514.1451,202.62877 503.0856,210.95426 M 503.33254,401.61159 L 516.49106,391.66334 L 501.28645,371.51987 L 503.6324,369.73836 C 516.1912,360.28398 517.46119,353.35195 508.43014,341.37524 C 499.36382,329.32796 490.75611,329.92768 479.67897,338.25318 L 464.33325,349.8242 L 503.33254,401.61159 z M 464.56255,430.80374 L 478.23259,420.52034 L 439.2333,368.75059 L 425.56326,379.03398 L 464.56255,430.80374 z M 401.99788,437.40063 C 417.37887,457.79104 424.78715,462.16545 438.33372,451.95261 C 442.39063,448.88347 444.61312,445.39099 445.6538,440.82255 L 449.62252,442.05727 L 456.64275,436.80092 L 434.92944,408.0321 L 417.87276,420.89076 L 425.13993,430.5568 L 428.56185,427.99918 L 432.42473,433.11442 C 434.77069,436.2012 434.20625,438.54715 432.12488,440.13464 C 430.00822,441.72213 427.59171,441.59866 425.28104,438.49424 L 407.46589,414.84066 C 405.11994,411.75388 405.66674,409.42556 407.76575,407.83808 C 409.8824,406.25059 412.26363,406.35642 414.59195,409.46084 L 416.92027,412.47707 L 430.55503,402.19367 C 427.41533,398.01329 425.21048,395.61442 422.93508,394.13276 C 415.72083,389.42321 407.04256,391.6457 399.74012,397.14899 C 386.56396,407.09725 387.28715,417.85689 401.99788,437.40063 M 410.76434,361.67745 L 441.1912,338.7647 L 432.79515,327.66992 L 416.07361,340.26399 L 408.45366,330.19226 L 421.64745,320.26164 L 413.2514,309.16686 L 400.07525,319.07985 L 393.47836,310.29574 L 409.38852,298.30139 L 401.34524,287.6123 L 371.76505,309.92533 L 410.76434,361.67745 z M 374.53433,388.99988 L 387.71048,379.05162 L 372.50587,358.87288 L 374.83419,357.09137 C 387.35771,347.67227 388.6277,340.74024 379.59665,328.76352 C 370.53033,316.71625 361.92262,317.33361 350.86312,325.64146 L 335.53504,337.23013 L 374.53433,388.99988 z M 335.76434,418.19203 L 349.41674,407.90863 L 310.39981,356.13888 L 296.76505,366.42227 L 335.76434,418.19203 z M 273.16439,424.78892 C 288.54539,445.17933 295.93603,449.55374 309.51787,439.3409 C 313.59242,436.27175 315.83254,432.77928 316.78504,428.17556 L 320.82431,429.44555 L 327.80926,424.17157 L 306.14887,395.42039 L 289.09219,408.27905 L 296.34172,417.94508 L 299.76364,415.36983 L 303.60888,420.5027 C 305.95484,423.58949 305.40804,425.93544 303.29139,427.52293 C 301.17474,429.12806 298.81114,428.98695 296.46519,425.88253 L 278.6324,402.24659 C 276.28645,399.14217 276.86853,396.83149 278.98518,395.22636 C 281.08419,393.62124 283.48306,393.76235 285.7761,396.84913 L 288.06914,399.86536 L 301.75682,389.58196 C 298.58184,385.38394 296.37699,383.02034 294.11923,381.52105 C 286.88734,376.8115 278.26199,379.03398 270.90663,384.53728 C 257.76575,394.48554 258.45366,405.24518 273.16439,424.78892 M 281.93085,349.06573 L 312.35771,326.13535 L 303.99694,315.05821 L 287.24012,327.66992 L 279.62017,317.59819 L 292.81396,307.64993 L 284.43555,296.53751 L 271.24176,306.46813 L 264.64487,297.66639 L 280.55503,285.6544 L 272.51175,275.00059 L 242.93156,297.27834 L 281.93085,349.06573 z M 245.70084,376.40581 L 258.87699,366.45755 L 243.65475,346.27881 L 246.0007,344.4973 C 258.54186,335.04292 259.81185,328.11089 250.7808,316.13417 C 241.71448,304.10454 233.14205,304.68662 222.08255,313.02975 L 206.70155,324.63605 L 245.70084,376.40581 z M 206.93085,405.59795 L 220.61853,395.29692 L 181.58396,343.52716 L 167.93156,353.81056 L 206.93085,405.59795 z M 144.36618,412.15957 C 159.76481,432.56761 167.13781,436.94203 180.70202,426.71155 C 184.75893,423.66004 186.96378,420.16757 188.00446,415.58149 L 191.99082,416.83384 L 198.99341,411.55985 L 177.31538,382.80868 L 160.22342,395.68497 L 167.50823,405.33337 L 170.93015,402.75811 L 174.7754,407.89099 C 177.12135,410.97778 176.59219,413.30609 174.47554,414.89358 C 172.35889,416.48107 169.97765,416.37524 167.6317,413.27081 L 149.81655,389.63488 C 147.50588,386.53046 148.05268,384.1845 150.11641,382.59701 C 152.26834,381.00953 154.64957,381.15064 156.99553,384.23742 L 159.27093,387.25365 L 172.90569,376.97025 C 169.74835,372.77223 167.56114,370.35572 165.28574,368.90934 C 158.07149,364.19979 149.4285,366.42227 142.09078,371.92556 C 128.91463,381.87382 129.63781,392.63347 144.36618,412.15957 M 188.69238,241.59278 C 181.44285,236.88323 172.81749,239.12336 165.47977,244.64429 C 152.30362,254.55727 153.04445,265.31691 167.75517,284.84302 C 183.11853,305.25106 190.52681,309.64311 204.10865,299.41263 C 208.1832,296.34349 210.35277,292.85101 211.37582,288.26494 L 215.39746,289.53493 L 222.3824,284.26094 L 200.72201,255.49212 L 183.61241,268.36842 L 190.91486,278.01682 L 194.33678,275.44156 L 198.16439,280.57444 C 200.51034,283.67886 199.98118,286.00717 197.86453,287.6123 C 195.76552,289.19979 193.38429,289.05868 191.03833,285.9719 L 173.20555,262.33596 C 170.85959,259.24918 171.40639,256.90322 173.55832,255.28046 C 175.62206,253.69297 178.02093,253.83408 180.36688,256.92086 L 182.65992,259.95473 L 196.29468,249.65369 C 193.15498,245.47331 190.95014,243.07444 188.69238,241.59278 M 204.99059,216.22825 L 191.33819,226.49401 L 230.33748,278.29904 L 243.97224,267.998 L 204.99059,216.22825 z M 245.43626,185.73084 L 230.0729,197.30186 L 269.10747,249.07162 L 282.24835,239.14099 L 267.06138,218.96226 L 269.40733,217.21602 C 281.93085,207.74401 283.20084,200.81197 274.18744,188.8529 C 265.10348,176.80562 256.5134,177.40534 245.43626,185.73084 M 359.17097,290.89311 L 372.80573,280.59208 L 333.80644,228.82232 L 320.17168,239.12336 L 359.17097,290.89311 z M 302.37417,267.89217 C 304.45555,266.30468 306.87206,266.44579 309.16509,269.53257 L 311.47577,272.56644 L 325.12817,262.26541 C 321.97083,258.08502 319.78363,255.66851 317.50823,254.23977 C 310.29397,249.49495 301.65098,251.71743 294.31326,257.23836 C 281.11947,267.15134 281.8603,277.92862 296.57102,297.45473 C 311.93438,317.86277 319.32502,322.25482 332.88922,312.0067 C 336.96378,308.9552 339.18626,305.46272 340.17403,300.87665 L 344.23094,302.16428 L 351.21589,296.87265 L 329.53786,268.10384 L 312.4459,280.98013 L 319.74835,290.62853 L 323.17027,288.05327 L 326.99788,293.18615 C 329.34383,296.27293 328.81467,298.60125 326.69802,300.18874 C 324.59901,301.79386 322.20014,301.67039 319.85418,298.58361 L 302.03904,274.93003 C 299.67544,271.82561 300.22224,269.4973 302.37417,267.89217 M 374.25211,198.34255 L 358.90639,209.91357 L 397.92332,261.68333 L 411.08184,251.75271 L 395.84195,231.57397 L 398.20554,229.79245 C 410.72906,220.35572 412.03433,213.42369 402.98565,201.44697 C 393.93696,189.41734 385.34689,190.01705 374.25211,198.34255 M 487.96918,303.50482 L 501.63922,293.20379 L 462.62229,241.45167 L 448.95225,251.71743 L 487.96918,303.50482 z M 431.15474,280.5568 C 433.27139,278.93403 435.67027,279.0575 437.99858,282.14429 L 440.27398,285.17815 L 453.94402,274.9124 C 450.80432,270.71437 448.59948,268.29786 446.34171,266.81621 C 439.07455,262.1243 430.43155,264.32914 423.14675,269.83243 C 409.95296,279.78069 410.67615,290.54034 425.40451,310.08408 C 440.76787,330.47448 448.15851,334.88417 461.74035,324.63605 C 465.77963,321.56691 468.00211,318.07444 469.00752,313.48836 L 473.04679,314.74071 L 479.97883,309.502 L 458.37135,280.71555 L 441.26175,293.5742 L 448.58184,303.24024 L 451.95084,300.66498 L 455.81373,305.79786 C 458.17732,308.88464 457.63052,311.2306 455.49623,312.81809 C 453.37958,314.42321 451.01599,314.29974 448.68767,311.17768 L 430.85489,287.54175 C 428.50893,284.43733 429.05573,282.12665 431.15474,280.5568 M 454.54374,153.20497 C 456.66039,151.59984 459.05926,151.74095 461.38758,154.82773 L 463.66297,157.8616 L 477.35065,147.54292 C 474.19331,143.38018 472.00611,140.98131 469.73071,139.49965 C 462.48118,134.77246 453.82055,137.01259 446.53574,142.51588 C 433.34195,152.4465 434.0475,163.20614 448.7935,182.74989 C 464.15686,203.15793 471.5475,207.53234 485.1117,197.3195 C 489.16862,194.26799 491.3911,190.79316 492.39651,186.1718 L 496.41815,187.45943 L 503.4031,182.18545 L 481.72506,153.38135 L 464.68602,166.25765 L 471.91791,175.94132 L 475.33983,173.36607 L 479.238,178.49894 C 481.58395,181.58573 480.98424,183.93168 478.88522,185.51917 C 476.76857,187.10666 474.38734,186.98319 472.07666,183.87877 L 454.22624,160.20755 C 451.89792,157.12077 452.44472,154.79245 454.54374,153.20497 M 416.84971,182.99683 L 432.77751,170.98483 L 424.73424,160.29575 L 395.15404,182.60878 L 434.15333,234.37853 L 464.56255,211.46578 L 456.21942,200.35337 L 439.40968,212.98272 L 431.84266,202.89335 L 445.03645,192.96273 L 436.6404,181.85031 L 423.48188,191.76329 L 416.84971,182.99683 z M 325.74553,140.59325 C 327.84454,138.98813 330.24341,139.1116 332.58936,142.21602 L 334.82949,145.24989 L 348.51716,134.94885 C 345.37746,130.7861 343.17262,128.35196 340.89722,126.90558 C 333.66533,122.19603 325.02234,124.40087 317.68461,129.92181 C 304.5261,139.83479 305.24929,150.61207 319.97765,170.17345 C 335.34101,190.56386 342.73165,194.95591 356.27822,184.72543 C 360.35277,181.63864 362.57525,178.16381 363.5983,173.57773 L 367.58466,174.84772 L 374.60489,169.57373 L 352.90921,140.78728 L 335.8349,153.66357 L 343.10206,163.32961 L 346.52398,160.75435 L 350.36923,165.85196 C 352.71519,168.97402 352.18602,171.31997 350.06937,172.90746 C 347.988,174.51259 345.57149,174.37148 343.22554,171.28469 L 325.42803,147.61348 C 323.09971,144.50906 323.62888,142.18074 325.74553,140.59325 M 287.99858,170.36748 L 303.94402,158.33784 L 295.93603,147.68403 L 266.33819,169.99706 L 305.31984,221.74918 L 335.72906,198.85407 L 327.35065,187.75929 L 310.59383,200.371 L 303.02681,190.28164 L 316.18532,180.36865 L 307.84219,169.2386 L 294.6484,179.16922 L 287.99858,170.36748 z M 138.21025,206.35054 L 140.59148,204.56903 C 153.115,195.13229 154.38499,188.18262 145.35395,176.22354 C 136.28763,164.17627 127.67991,164.75835 116.62041,173.11912 L 101.23941,184.70779 L 140.27399,236.4599 L 153.41486,226.54692 L 138.21025,206.35054 z M 153.115,336.45402 L 183.54186,313.52364 L 175.16345,302.4465 L 158.42427,315.05821 L 150.80432,304.96884 L 163.98048,295.03822 L 155.60207,283.94344 L 142.42591,293.85642 L 135.82902,285.05468 L 151.77446,273.06033 L 143.6959,262.38888 L 114.11571,284.68427 L 153.115,336.45402 z M 114.85654,333.6671 L 117.20249,331.88558 C 129.72601,322.43121 130.97836,315.49918 121.94732,303.52246 C 112.88099,291.49283 104.27328,292.07491 93.266696,300.43568 L 77.885699,312.0067 L 116.88499,363.77646 L 130.06114,353.84584 L 114.85654,333.6671 z M 542.08489,321.77858 L 528.92638,331.69156 L 522.25893,322.90746 L 538.22201,310.89546 L 530.17873,300.22401 L 500.56326,322.53704 L 539.58019,374.3068 L 569.97177,351.37641 L 561.611,340.26399 L 544.85418,352.91098 L 537.28715,342.80398 L 550.42803,332.89099 L 542.08489,321.77858 z"
     style="fill:#FEBF4A" />
  <path
     style="fill:#000000"
     d="M 588.00564,587.98801 L 12.01199,587.98801 L 12.01199,11.99435 L 588.00564,11.99435 L 588.00564,587.98801 z M 0,600 L 600,600 L 600,0 L 0,0 L 0,600 z" />
  <path
     d="M 211.2259,514.79774 L 117.61701,514.79774 L 117.61701,189.57432 L 56.42816,189.57432 L 56.42816,134.38265 C 98.426043,134.98236 126.0307,117.57291 141.02364,76.774463 L 211.2259,76.774463 L 211.2259,514.79774 z"
     style="fill:#FFFFFF" />
  <path
     d="M 421.80973,323.98166 C 403.21848,323.98166 394.80479,342.59055 394.80479,382.18956 C 394.80479,422.38829 403.21848,440.39746 421.80973,440.39746 C 441.61806,440.39746 450.0141,422.38829 450.0141,382.18956 C 450.0141,342.59055 441.61806,323.98166 421.80973,323.98166 M 394.80479,266.39112 C 412.81396,249.58138 426.02539,237.58702 456.01128,237.58702 C 511.82031,237.58702 541.22412,284.98237 541.22412,373.19379 C 541.22412,455.99012 519.61664,522.012 420.61029,522.012 C 351.00776,522.012 315.60677,486.59337 303.01269,419.3897 C 297.5976,389.98589 296.99788,353.98519 296.99788,304.79069 C 297.5976,244.78364 298.21495,208.78293 303.61241,179.37912 C 316.20649,112.17545 351.60747,76.774467 421.21001,76.774467 C 484.21566,76.774467 535.22694,115.77376 535.22694,181.77799 L 535.22694,203.98519 L 447.61523,203.98519 L 447.61523,193.78999 C 447.61523,163.76882 436.2206,155.97249 421.21001,155.97249 C 403.21848,158.389 395.40451,175.1811 394.80479,199.16981 L 394.80479,266.39112 z"
     style="fill:#FFFFFF" />
  <path
     d="M 576.00246,58.53069 L 570.42861,58.53069 L 570.42861,31.349364 L 570.25222,31.349364 L 560.69202,58.53069 L 556.15886,58.53069 L 547.05726,31.349364 L 546.89851,31.349364 L 546.89851,58.53069 L 541.30702,58.53069 L 541.30702,24.011641 L 550.17932,24.011641 L 558.76939,49.676033 L 558.94578,49.676033 L 567.32419,24.011641 L 576.00246,24.011641 L 576.00246,58.53069 z M 537.3383,24.011641 L 537.3383,28.474246 L 527.83101,28.474246 L 527.83101,58.53069 L 522.25716,58.53069 L 522.25716,28.474246 L 512.76751,28.474246 L 512.76751,24.011641 L 537.3383,24.011641 z"
     style="fill:#000000" />
</svg>
