<?xml version="1.0" encoding="UTF-8" standalone="no"?>
<!-- Created with Inkscape (http://www.inkscape.org/) -->
<svg xmlns="http://www.w3.org/2000/svg" width="600" height="600">
  <defs>
  </defs>
  <path
     style="fill:#99CC00"
     d="M 587.98813,587.98793 L 11.99447,587.98793 L 11.99447,11.99426 L 587.98813,11.99426 L 587.98813,587.98793 z" />
  <path
     d="M 237.76694,325.28339 C 242.12371,331.05126 240.76553,333.27375 236.35584,336.62511 L 226.90147,324.06632 C 232.05198,320.20343 234.08044,320.34454 237.76694,325.28339 M 471.99201,477.80573 C 476.38406,483.5736 474.97296,485.849 470.61618,489.12981 L 461.14417,476.58866 C 466.31233,472.72577 468.34078,472.91979 471.99201,477.80573 M 261.13829,197.93156 C 265.51271,203.73471 264.13688,205.99247 259.74483,209.30856 L 250.3081,196.7674 C 255.42334,192.90451 257.45179,193.06326 261.13829,197.93156 M 155.71144,58.020929 C 160.05057,63.788803 158.71003,66.046564 154.33561,69.36265 L 144.88124,56.821493 C 149.99648,52.958605 152.02494,53.117354 155.71144,58.020929 M 85.544458,439.97059 C 89.901232,445.75611 88.560686,447.99623 84.168635,451.32995 L 74.696622,438.77116 C 79.829501,434.90827 81.857958,435.03174 85.544458,439.97059 M 284.52729,70.632641 C 288.86642,76.382876 287.52588,78.675914 283.11619,81.974362 L 273.69709,69.415566 C 278.81233,65.570317 280.84079,65.729066 284.52729,70.632641 M 343.21144,465.17638 C 347.55057,470.94425 346.15711,473.23729 341.7827,476.55338 L 332.32832,463.97694 C 337.44356,460.14933 339.48966,460.29044 343.21144,465.17638 M 366.60043,337.8951 C 370.92192,343.6277 369.59902,345.9031 365.17169,349.21918 L 355.73495,336.67803 C 360.88547,332.81514 362.87865,332.97389 366.60043,337.8951 M 518.80527,223.17262 C 523.14441,228.94049 521.78622,231.21589 517.39417,234.51434 L 507.95744,221.95555 C 513.09031,218.1103 515.10113,218.28668 518.80527,223.17262 M 413.36078,83.244353 C 417.69991,89.012227 416.35936,91.269988 411.96731,94.586074 L 402.53058,82.044917 C 407.64582,78.182029 409.67428,78.340778 413.36078,83.244353 M 389.97178,210.56091 C 394.31092,216.32878 392.97037,218.58654 388.57832,221.88499 L 379.14159,209.34383 C 384.22155,205.49858 386.28528,205.67497 389.97178,210.56091 M 542.19426,95.856065 C 546.5334,101.62394 545.19285,103.8817 540.81844,107.18015 L 531.31115,94.63899 C 536.47931,90.776102 538.50776,90.95249 542.19426,95.856065 M 108.95109,312.65404 C 113.29022,318.42191 111.94968,320.66204 107.57527,323.99576 L 98.120893,311.40169 C 103.23613,307.59172 105.28223,307.75046 108.95109,312.65404 M 214.37795,452.59995 C 218.71708,458.33254 217.37654,460.5903 212.98449,463.90639 L 203.54775,451.34759 C 208.66299,447.50234 210.69145,447.67873 214.37795,452.59995 M 495.381,350.47154 C 499.77305,356.23941 498.39723,358.53245 494.00518,361.84854 L 484.56844,349.28974 C 489.66604,345.40921 491.6945,345.60324 495.381,350.47154 M 16.030113,44.209781 L 25.502126,56.750938 C 29.894177,53.417213 31.252361,51.177091 26.895588,45.426856 C 23.191449,40.505642 21.162992,40.346893 16.030113,44.209781 M 132.32244,185.35512 C 136.69686,191.123 135.32103,193.36312 130.94662,196.69684 L 121.47461,184.13805 C 126.58985,180.2928 128.61831,180.43391 132.32244,185.35512 M 583.66298,11.98377 L 567.71755,11.98377 L 573.50306,19.65663 L 583.66298,11.98377 z M 290.75377,13.341955 L 289.73072,11.98377 L 268.33491,11.98377 L 277.06609,23.625351 L 290.75377,13.341955 z M 343.33491,42.833958 C 358.73354,63.224362 366.10654,67.616413 379.67075,57.368295 C 383.72766,54.31679 385.93251,50.841954 386.97319,46.2206 L 390.95955,47.508229 L 397.96214,42.23424 L 376.28411,13.465426 L 359.19215,26.324081 L 366.47696,36.007759 L 369.89888,33.414861 L 373.74413,38.54774 C 376.09008,41.652161 375.56092,43.980477 373.44427,45.567966 C 371.32762,47.137815 368.94638,47.031983 366.60043,43.9452 L 348.82056,20.309264 C 346.47461,17.204843 347.00377,14.876527 349.08514,13.2714 C 351.20179,11.683912 353.6183,11.772105 355.96426,14.894165 L 358.23966,17.945671 L 366.10654,11.98377 L 333.1397,11.98377 C 329.71779,19.79774 333.01623,29.146282 343.33491,42.833958 M 419.58726,25.953667 L 409.03928,11.98377 L 387.62583,11.98377 L 405.89958,36.27234 L 419.58726,25.953667 z M 472.18603,55.44567 C 487.53175,75.836074 494.92239,80.228125 508.4866,69.997645 C 512.56115,66.928502 514.80127,63.436027 515.80668,58.84995 L 519.79304,60.119941 L 526.79563,54.845952 L 505.1176,26.094777 L 488.06092,38.935793 L 495.31045,48.619471 L 498.71473,46.044212 L 502.55998,51.141813 C 504.92357,54.263873 504.39441,56.592189 502.26012,58.179678 C 500.14347,59.767166 497.76223,59.661333 495.43392,56.539273 L 477.60113,32.885699 C 475.27282,29.798916 475.81962,27.4706 477.95391,25.883112 C 480.07056,24.295623 482.45179,24.401456 484.78011,27.505877 L 487.03787,30.522105 L 500.72554,20.238709 C 497.55057,16.058324 495.381,13.641814 493.07032,12.195436 C 492.92921,12.071964 492.77046,12.071964 492.62935,11.98377 L 475.16698,11.98377 C 473.38547,12.883347 471.56868,13.924034 469.893,15.211663 C 456.73448,25.124645 457.42239,35.884287 472.18603,55.44567 M 548.38547,38.565379 L 528.36548,11.98377 L 506.96966,11.98377 L 534.73307,48.848775 L 548.38547,38.565379 z M 71.063038,69.203901 L 101.45462,46.273516 L 93.129124,35.214015 L 76.337027,47.825727 L 68.752361,37.718718 L 81.946152,27.788098 L 73.550103,16.67568 L 60.373951,26.606301 L 53.759417,17.839838 L 61.502831,11.98377 L 39.295635,11.98377 L 32.063744,17.451785 L 71.063038,69.203901 z M 199.89653,81.833252 L 230.28811,58.902867 L 221.9097,47.790449 L 205.17052,60.437439 L 197.55057,50.33043 L 210.72672,40.417448 L 202.34831,29.305031 L 189.20744,39.218013 L 182.57527,30.433911 L 198.50306,18.421917 L 193.68768,11.98377 L 184.83303,11.98377 L 160.86196,30.063497 L 199.89653,81.833252 z M 250.83726,44.79186 C 254.91181,41.705078 257.15194,38.230242 258.13971,33.626526 L 262.1437,34.878878 L 269.12865,29.640167 L 255.86431,11.98377 L 232.70462,11.98377 L 230.41158,13.747646 L 237.66111,23.378408 L 241.08303,20.820788 L 244.96355,25.953667 C 247.27423,29.022811 246.72743,31.368765 244.61078,32.956254 C 242.49413,34.561381 240.11289,34.437909 237.76694,31.315849 L 223.2326,11.98377 L 204.04163,11.98377 C 205.69968,17.169565 209.15687,23.096188 214.50142,30.222246 C 229.90005,50.61265 237.27305,54.987062 250.83726,44.79186 M 122.00377,32.16251 C 126.07832,29.093366 128.31845,25.600892 129.32386,21.032453 L 133.31022,22.267166 L 140.29516,16.993178 L 136.53811,11.98377 L 115.14229,11.98377 L 116.13006,13.324316 C 118.44074,16.446376 117.91158,18.757053 115.79493,20.344542 C 113.67828,21.949669 111.29705,21.826197 108.95109,18.704137 L 103.88877,11.98377 L 81.769764,11.98377 C 82.9692,13.818201 84.221552,15.617355 85.720846,17.610534 C 101.0842,38.000938 108.45721,42.37535 122.00377,32.16251 M 539.79539,512.34242 L 578.8476,564.11217 L 587.98448,557.14486 L 587.98448,547.84924 L 553.48307,502.02375 L 539.79539,512.34242 z M 504.11219,569.75658 L 490.93603,579.66956 L 484.3215,570.86782 L 500.23166,558.8911 L 492.20602,548.21965 L 462.60819,570.51504 L 475.80198,587.99505 L 502.98331,587.99505 L 512.4906,580.85135 L 504.11219,569.75658 z M 559.8683,574.07807 L 563.88994,575.33042 L 570.87488,570.09171 L 549.23213,541.3229 L 532.14017,554.19919 L 539.3897,563.82995 L 542.81162,561.25469 L 546.69215,566.38757 C 549.0381,569.47436 548.45602,571.80267 546.33937,573.39016 C 544.24036,574.97765 541.84149,574.87182 539.54845,571.76739 L 521.71567,548.13146 C 519.36971,545.0094 519.89887,542.68108 522.01553,541.11123 C 524.11454,539.52374 526.51341,539.64722 528.85936,542.734 L 531.13476,545.7855 L 544.78716,535.46683 C 541.64746,531.30408 539.4779,528.8523 537.2025,527.40592 C 529.93533,522.69637 521.29234,524.91885 513.98989,530.45742 C 500.7961,540.37041 501.50165,551.09477 516.24765,570.65615 C 522.82691,579.38734 527.94215,585.0141 532.70461,587.99505 L 548.27964,587.99505 C 549.69074,587.21895 551.10184,586.35465 552.60113,585.20813 C 556.62277,582.15662 558.86289,578.68179 559.8683,574.07807 M 441.7239,586.21354 L 439.32503,587.99505 L 469.31092,587.99505 C 460.65029,577.49999 452.30715,578.25846 441.7239,586.21354 M 304.08867,580.28691 L 293.78764,587.99505 L 335.53858,587.99505 C 334.67428,586.47812 334.0922,585.08466 332.82221,583.39134 C 323.73825,571.34406 315.14817,571.9085 304.08867,580.28691 M 361.66158,584.80244 L 374.82009,574.87182 L 366.47696,563.77704 L 353.31844,573.69002 L 346.65099,564.90592 L 362.61407,552.91156 L 354.5708,542.22247 L 324.95532,564.55314 L 342.62936,587.99505 L 364.06045,587.99505 L 361.66158,584.80244 z M 204.00636,570.76199 C 194.94004,558.71471 186.33232,559.33207 175.27282,567.65756 L 159.90946,579.22859 L 166.48872,587.99505 L 187.1437,587.99505 L 180.14112,578.68179 C 185.25636,574.8189 187.30245,574.97765 190.98895,579.88122 C 193.86407,583.70883 194.0581,585.93132 192.73519,587.99505 L 208.66299,587.99505 C 210.5327,582.98564 209.22743,577.72929 204.00636,570.76199 M 257.16957,569.66838 L 240.43039,582.28009 L 232.86337,572.19072 L 245.9866,562.27774 L 237.66111,551.2006 L 224.48496,561.11358 L 217.85278,552.29421 L 233.78058,540.28221 L 225.73731,529.61076 L 196.12183,551.94143 L 223.3208,587.99505 L 255.97014,587.99505 L 265.56562,580.7808 L 257.16957,569.66838 z M 378.43604,587.99505 L 390.3422,587.99505 L 386.00306,582.28009 L 378.43604,587.99505 z M 578.56538,483.13264 L 587.98448,495.60324 L 587.98448,476.02422 L 578.56538,483.13264 z M 554.36501,391.65804 L 587.98448,436.26646 L 587.98448,407.85042 L 568.05268,381.33936 L 554.36501,391.65804 z M 570.08114,306.21589 L 577.34831,315.88193 L 580.77023,313.28903 L 584.63312,318.40427 C 586.97907,321.52633 586.41463,323.83701 584.28034,325.4245 C 582.18133,327.01199 579.81774,326.90616 577.47178,323.80173 L 559.67427,300.14816 C 557.32832,297.06138 557.87512,294.73306 559.97413,293.14557 C 562.09078,291.54045 564.48965,291.64628 566.81797,294.7507 L 569.07573,297.80221 L 582.76341,287.48353 C 579.62371,283.32078 577.41886,280.90427 575.14346,279.44026 C 567.91157,274.73071 559.25094,276.93555 551.9485,282.47412 C 538.77235,292.38711 539.49553,303.14675 554.2239,322.69049 C 568.56421,341.74035 576.04304,346.66156 587.98448,338.90051 L 587.98448,294.46848 L 587.13782,293.35724 L 570.08114,306.21589 z M 575.31985,155.12229 C 562.16134,165.07055 562.86689,175.83019 577.61289,195.3563 C 581.49342,200.55973 584.88006,204.66956 587.98448,207.8269 L 587.98448,179.39322 L 583.06327,172.8316 C 580.71731,169.74482 581.26411,167.41651 583.38076,165.82902 C 584.82714,164.71778 586.41463,164.52375 587.98448,165.4586 L 587.98448,149.79539 C 583.68062,150.27163 579.32385,152.1237 575.31985,155.12229 M 569.05809,68.269047 L 584.98589,56.257053 L 576.92498,45.567966 L 547.38006,67.898633 L 586.37935,119.65075 L 587.98448,118.43367 L 587.98448,93.404277 L 584.0334,88.165566 L 587.98448,85.184616 L 587.98448,67.775162 L 575.65499,77.053149 L 569.05809,68.269047 z M 587.98448,277.90569 L 587.98448,256.61571 L 577.77164,264.34148 L 587.98448,277.90569 z M 568.28199,225.57149 L 560.66204,215.49976 L 573.80292,205.5515 L 565.45979,194.47436 L 552.30127,204.38734 L 545.68674,195.5856 L 561.5969,183.59125 L 553.55362,172.90216 L 523.99107,195.21519 L 562.99036,246.98494 L 587.98448,228.12911 L 587.98448,216.9285 L 584.98589,212.94214 L 568.28199,225.57149 z M 51.307629,566.05244 L 60.762003,578.61123 C 65.154054,575.29515 66.529877,573.03738 62.155465,567.30479 C 58.486604,562.38358 56.440508,562.20719 51.307629,566.05244 M 11.990838,197.19073 L 11.990838,223.4372 L 24.584911,213.92991 L 11.990838,197.19073 z M 22.909229,260.44332 L 14.883594,249.77187 L 11.990838,251.94143 L 11.990838,268.66298 L 22.909229,260.44332 z M 16.523998,163.57126 C 15.007065,161.56044 13.507771,160.04351 11.990838,158.70296 L 11.990838,191.72271 C 24.214497,182.39181 25.466849,175.45978 16.523998,163.57126 M 22.944506,417.1284 L 11.990838,425.38334 L 11.990838,442.7928 L 31.322916,428.22318 L 22.944506,417.1284 z M 54.694271,300.90663 L 46.333499,289.81185 L 29.576679,302.42356 L 21.992013,292.36947 L 35.168166,282.42121 L 26.789756,271.32643 L 13.595965,281.23941 L 11.990838,279.08748 L 11.990838,307.52116 L 24.285052,323.83701 L 54.694271,300.90663 z M 51.872069,414.12981 C 55.928984,411.04303 58.133829,407.5682 59.156876,402.98212 L 63.178513,404.25211 L 70.145823,398.94284 L 48.503067,370.19167 L 31.393471,383.0856 L 38.678278,392.734 L 42.100198,390.15874 L 45.963086,395.29162 C 48.291402,398.3784 47.7446,400.72436 45.645588,402.32948 C 43.511298,403.91697 41.130066,403.77586 38.819389,400.6538 L 20.986604,377.01787 C 18.658288,373.91345 19.20509,371.56749 21.304102,369.98 C 23.420753,368.39251 25.801985,368.55126 28.14794,371.63805 L 30.42334,374.63663 L 44.075738,364.37088 C 40.936039,360.15521 38.731195,357.79162 36.491072,356.30997 C 29.223904,351.60042 20.580913,353.8229 13.260828,359.30855 C 12.784582,359.69661 12.449445,360.06702 11.990838,360.43743 L 11.990838,394.51552 C 13.102079,396.15592 14.195682,397.77869 15.518589,399.52492 C 30.917225,419.96824 38.307865,424.36029 51.872069,414.12981 M 78.083264,173.60771 L 69.722493,162.49529 L 52.983311,175.15992 L 45.381006,165.03527 L 58.521881,155.08701 L 50.178749,144.00987 L 37.002596,153.92286 L 30.388062,145.10348 L 46.298222,133.12676 L 38.254948,122.45531 L 11.990838,142.246 L 11.990838,149.16039 L 47.691684,196.5381 L 78.083264,173.60771 z M 34.833029,96.526337 L 11.990838,66.205312 L 11.990838,32.656395 C 22.644647,24.877703 31.058335,24.542566 39.895353,36.27234 C 48.926397,48.249057 47.656406,55.198728 35.132888,64.635463 L 32.769295,66.416978 L 47.991543,86.595717 L 34.833029,96.526337 z M 20.704384,491.68743 C 17.547046,487.47177 15.35984,485.0729 13.084441,483.60888 C 12.731665,483.36194 12.361252,483.36194 11.990838,483.15027 L 11.990838,498.23141 L 20.704384,491.68743 z M 128.35372,557.05667 L 111.64982,569.66838 L 104.02988,559.57901 L 117.22367,549.64839 L 108.84526,538.53597 L 95.669106,548.48423 L 89.019294,539.71777 L 104.96473,527.68814 L 96.939096,517.01669 L 67.34126,539.31208 L 104.01224,587.99505 L 110.41511,587.99505 L 136.73213,568.13381 L 128.35372,557.05667 z M 70.410404,586.49576 L 68.434863,587.99505 L 47.18016,587.99505 L 31.075974,566.63452 L 46.456971,555.04585 C 57.516472,546.70272 66.106547,546.13828 75.172869,558.15027 C 84.221552,570.10935 82.933922,577.04138 70.410404,586.49576 M 28.483076,541.42873 C 32.557629,538.35959 34.762474,534.86711 35.767883,530.2634 L 39.78952,531.53339 L 46.75683,526.27704 L 25.096435,497.52586 L 11.990838,507.36829 L 11.990838,515.65851 L 15.306924,520.03292 L 18.711204,517.4753 L 22.556454,522.5729 C 24.902408,525.67732 24.355607,528.02327 22.256595,529.61076 C 20.139944,531.18061 17.758711,531.09242 15.412757,527.988 L 11.990838,523.4372 L 11.990838,545.89134 C 17.106077,547.67285 22.115485,546.22647 28.483076,541.42873 M 578.42427,454.69896 L 585.46214,449.42497 L 563.7841,420.65615 L 546.69215,433.51481 L 553.97695,443.19849 L 557.39887,440.58795 L 561.24412,445.70319 C 563.59008,448.84289 563.06092,451.13593 560.94426,452.74106 C 558.82761,454.32854 556.44638,454.20507 554.10043,451.11829 L 536.26764,427.46472 C 533.92169,424.37793 534.45085,422.03198 536.58514,420.44449 C 538.70179,418.87464 541.06538,418.96283 543.42898,422.04962 L 545.68674,425.11876 L 559.37441,414.78245 C 556.21708,410.6197 554.02987,408.20319 551.75447,406.72154 C 544.4873,402.01199 535.84431,404.25211 528.5595,409.77304 C 515.38335,419.7213 516.10654,430.4633 530.8349,450.02469 C 546.18062,470.37981 553.55362,474.77186 567.13547,464.54138 C 571.22766,461.47224 573.4325,458.01504 574.42028,453.41133 L 578.42427,454.69896 z M 546.56868,478.68767 L 538.22554,467.59289 L 521.46872,480.2046 L 513.88406,470.09759 L 527.06021,460.18461 L 518.6818,449.10747 L 505.48801,458.98518 L 498.8382,450.23635 L 514.80127,438.22436 L 506.77564,427.53527 L 477.1778,449.8483 L 516.1771,501.60041 L 546.56868,478.68767 z M 493.07032,518.97459 L 477.90099,498.81349 L 480.24695,497.03198 C 492.77046,487.61288 494.05809,480.64557 485.00941,468.70413 C 475.96073,456.65686 467.33538,457.25658 456.27587,465.58207 L 440.94779,477.13546 L 479.94709,528.90521 L 493.07032,518.97459 z M 454.81186,547.81396 L 415.81256,496.04421 L 402.1778,506.36288 L 441.1771,558.13263 L 454.81186,547.81396 z M 433.20438,564.12981 L 411.56162,535.34336 L 394.46967,548.21965 L 401.75447,557.85041 L 405.17639,555.29279 L 409.02164,560.40803 C 411.3676,563.49482 410.82079,565.84077 408.72178,567.4459 C 406.60513,569.03339 404.2239,568.89228 401.87794,565.82313 L 384.04516,542.16956 C 381.73448,539.0475 382.28128,536.73682 384.39794,535.14933 C 386.47931,533.57948 388.89582,533.66768 391.24177,536.75446 L 393.49953,539.80596 L 407.11666,529.48729 C 403.97696,525.32454 401.80739,522.90803 399.53199,521.42638 C 392.31774,516.71683 383.65711,518.93931 376.31938,524.47788 C 363.16087,534.4085 363.88406,545.15051 378.57715,564.69425 C 393.99342,585.08466 401.38406,589.47671 414.93063,579.24623 C 419.00518,576.17708 421.19238,572.68461 422.23307,568.09853 L 426.21943,569.36852 L 433.20438,564.12981 z M 387.34361,488.9887 L 417.7881,466.0936 L 409.39206,454.96354 L 392.67051,467.61053 L 385.05057,457.48588 L 398.20908,447.5729 L 389.84831,436.49576 L 376.67216,446.40874 L 370.07526,437.58936 L 386.00306,425.57737 L 377.94215,414.90592 L 348.34431,437.23659 L 387.34361,488.9887 z M 364.30739,506.38052 L 349.04986,486.18414 L 351.4311,484.42026 C 363.95461,474.98353 365.22461,468.03386 356.19356,456.09242 C 347.12724,444.04515 338.51953,444.62723 327.46002,452.95272 L 312.07903,464.52375 L 351.13124,516.2935 L 364.30739,506.38052 z M 326.03129,535.23753 L 286.99671,483.46777 L 273.34431,493.73353 L 312.34361,545.50328 L 326.03129,535.23753 z M 304.40617,551.50046 L 282.7105,522.71401 L 265.67146,535.5903 L 272.92098,545.2387 L 276.3429,542.68108 L 280.18815,547.81396 C 282.53411,550.8831 281.98731,553.26434 279.88829,554.83419 C 277.77164,556.42167 275.39041,556.28056 273.04446,553.19378 L 255.22931,529.54021 C 252.90099,526.45342 253.4478,524.14275 255.54681,522.55526 C 257.6811,520.93249 260.06233,521.05597 262.39065,524.17803 L 264.66605,527.17661 L 278.35372,516.91086 C 275.16111,512.71283 272.9739,510.31396 270.73378,508.81467 C 263.48425,504.1404 254.82362,506.36288 247.4859,511.84853 C 234.36266,521.81443 235.05057,532.55644 249.7613,552.08254 C 265.12465,572.47294 272.55057,576.88263 286.11478,566.66979 C 290.18933,563.56537 292.37653,560.0729 293.36431,555.50446 L 297.40358,556.75681 L 304.40617,551.50046 z M 258.56304,476.35935 L 288.95462,453.44661 L 280.59384,442.35183 L 263.83702,454.96354 L 256.25236,444.90945 L 269.39323,434.94355 L 261.06774,423.83113 L 247.89159,433.77939 L 241.24178,425.01293 L 257.16957,412.98329 L 249.10866,402.32948 L 219.52846,424.60724 L 258.56304,476.35935 z M 235.4739,493.75117 L 220.25165,473.59007 L 222.59761,471.79091 C 235.12113,462.37182 236.39112,455.40451 227.41299,443.46307 C 218.29375,431.43344 209.73895,432.01551 198.67945,440.34101 L 183.29846,451.94731 L 222.29775,503.71707 L 235.4739,493.75117 z M 197.21544,522.60818 L 158.21614,470.82078 L 144.52847,481.13946 L 183.52776,532.89157 L 197.21544,522.60818 z M 175.60796,538.87111 L 153.91228,510.13757 L 136.83797,522.99623 L 144.10514,532.62699 L 147.52705,530.05173 L 151.40758,535.18461 C 153.71826,538.28903 153.17146,540.61735 151.07244,542.22247 C 148.95579,543.80996 146.57456,543.66885 144.22861,540.58207 L 126.4311,516.9285 C 124.10278,513.84171 124.63195,511.5134 126.7486,509.92591 C 128.84761,508.33842 131.24648,508.44425 133.59244,511.53104 L 135.8502,514.5649 L 149.52023,504.28151 C 146.38053,500.10112 144.17569,497.68461 141.91793,496.22059 C 134.65076,491.49341 126.02541,493.73353 118.68768,499.25446 C 105.52917,509.16744 106.25236,519.92708 120.98072,539.45319 C 136.36172,559.86123 143.71708,564.25328 157.28129,554.0228 C 161.35584,550.95366 163.57832,547.49646 164.58373,542.89275 L 168.57009,544.1451 L 175.60796,538.87111 z M 129.74719,463.78292 L 160.12113,440.85253 L 151.76036,429.77539 L 135.00354,442.35183 L 127.40123,432.2801 L 140.57738,422.33184 L 132.19897,411.2547 L 119.0581,421.18532 L 112.40829,412.38358 L 128.35372,400.37158 L 120.32809,389.71777 L 90.712615,411.99552 L 129.74719,463.78292 z M 106.65805,481.13946 L 91.435804,460.97836 L 93.781758,459.1792 C 106.30528,449.74247 107.57527,442.82807 98.544223,430.85136 C 89.460263,418.82172 80.887826,419.38616 69.828325,427.74694 L 54.482606,439.30032 L 93.4819,491.08772 L 106.65805,481.13946 z M 68.399586,510.0141 L 29.365014,458.24435 L 15.712616,468.5101 L 54.711909,520.2975 L 68.399586,510.0141 z M 78.100903,392.9633 L 91.788579,382.69755 L 52.771646,330.92779 L 39.101609,341.22883 L 78.100903,392.9633 z M 75.243424,286.77798 C 79.317977,283.74411 81.54046,280.25164 82.528231,275.64792 L 86.567506,276.91792 L 93.552455,271.64393 L 71.856782,242.87511 L 54.782465,255.75141 L 62.067272,265.41745 L 65.471552,262.84219 L 69.352079,267.97507 C 71.680395,271.06185 71.133593,273.37253 69.034581,274.96001 C 66.91793,276.56514 64.536698,276.44167 62.190743,273.35489 L 44.393236,249.70131 C 42.047281,246.59689 42.576444,244.26857 44.693095,242.66345 C 46.792107,241.0936 49.173339,241.18179 51.519294,244.33913 L 53.812333,247.33772 L 67.464732,237.03668 C 64.325033,232.87394 62.120188,230.45743 59.862427,228.99341 C 52.630536,224.28386 43.952267,226.48871 36.632183,232.00964 C 23.491308,241.92262 24.196858,252.6999 38.907582,272.22601 C 54.288579,292.63405 61.66158,297.0261 75.243424,286.77798 M 62.508241,213.89463 L 101.50753,265.66439 L 115.14229,255.38099 L 76.125362,203.57596 L 62.508241,213.89463 z M 98.667694,159.47906 C 102.68933,156.40992 104.92945,152.91745 105.91722,148.31373 L 109.9565,149.58372 L 116.94145,144.32737 L 95.228137,115.55856 L 78.189096,128.43485 L 85.438626,138.08325 L 88.860545,135.52563 L 92.741072,140.64087 C 95.087027,143.72765 94.557864,146.07361 92.423574,147.6611 C 90.289284,149.24859 87.890413,149.12511 85.544458,146.02069 L 67.76459,122.36712 C 65.418636,119.28034 65.983076,116.96966 68.099727,115.36453 C 70.198739,113.77704 72.579971,113.88288 74.908287,116.9873 L 77.183687,120.02116 L 90.853725,109.72013 C 87.714026,105.53974 85.509181,103.14087 83.25142,101.67685 C 76.00189,96.949668 67.358899,99.172151 60.038814,104.69308 C 46.880301,114.6237 47.585851,125.38335 62.296575,144.89181 C 77.677572,165.31749 85.068212,169.69191 98.667694,159.47906 M 85.861956,86.578078 L 124.86125,138.34783 L 138.53129,128.0468 L 99.549632,76.277043 L 85.861956,86.578078 z M 124.63195,57.368295 L 163.63124,109.13805 L 176.80739,99.18979 L 161.60278,79.02869 L 163.9311,77.264814 C 176.45462,67.828078 177.72461,60.860769 168.74648,48.901691 C 159.62724,36.854419 151.07244,37.436498 139.9953,45.779631 L 124.63195,57.368295 z M 178.9946,156.58631 L 165.81845,166.53457 L 159.20391,157.73283 L 175.11407,145.72083 L 167.0708,135.04938 L 137.50824,157.34478 L 176.50753,209.11453 L 206.91675,186.21942 L 198.55598,175.12464 L 181.79916,187.73636 L 174.19686,177.66462 L 187.37301,167.69873 L 178.9946,156.58631 z M 191.13006,157.5388 C 206.49342,177.94684 213.88406,182.32126 227.48354,172.09078 C 231.50518,169.02163 233.72766,165.52916 234.75071,160.92544 L 238.77235,162.19543 L 245.77494,156.92144 L 224.06163,128.17027 L 206.98731,141.02892 L 214.25448,150.69496 L 217.67639,148.10207 L 221.57456,153.23494 C 223.92051,156.33937 223.3208,158.65004 221.25706,160.25517 C 219.10513,161.84266 216.7239,161.71919 214.37795,158.61477 L 196.58044,134.97883 C 194.23449,131.89205 194.78129,129.56373 196.89794,127.9586 C 199.01459,126.37112 201.39582,126.49459 203.74178,129.59901 L 206.01718,132.61524 L 219.66957,122.33184 C 216.52988,118.15145 214.34267,115.73494 212.08491,114.27093 C 204.81774,109.56138 196.15711,111.8015 188.8723,117.28716 C 175.69615,127.21778 176.41934,137.99506 191.13006,157.5388 M 214.67781,99.172151 L 253.6771,150.94191 L 267.36478,140.67615 L 228.36548,88.888755 L 214.67781,99.172151 z M 253.4478,69.962368 L 292.44709,121.74976 L 305.62324,111.81914 L 290.40099,91.622763 L 292.74695,89.858887 C 305.28811,80.422151 306.5581,73.49012 297.52705,61.513403 C 288.44309,49.466131 279.88829,50.065849 268.81115,58.391343 L 253.4478,69.962368 z M 289.6778,42.657571 L 328.73002,94.427325 L 359.10396,71.532217 L 350.72555,60.402161 L 334.02164,73.031512 L 326.38406,62.942142 L 339.56021,52.993883 L 331.1818,41.916743 L 318.04093,51.829725 L 311.39112,43.045623 L 327.33655,31.033629 L 319.31092,20.344542 L 289.6778,42.657571 z M 357.16369,101.50047 L 343.51129,111.8015 L 382.51059,163.55362 L 396.18063,153.27022 L 357.16369,101.50047 z M 382.28128,82.591719 L 421.28058,134.36147 L 434.45673,124.41321 L 419.23448,104.25211 L 421.58044,102.4706 C 434.10396,93.033863 435.40922,86.101832 426.39582,74.125115 C 417.31186,62.077843 408.72178,62.677561 397.66228,71.020693 L 382.28128,82.591719 z M 418.51129,55.269283 L 457.49295,107.03904 L 487.93744,84.143929 L 479.5414,73.031512 L 462.81985,85.643224 L 455.23519,75.571493 L 468.35842,65.640872 L 460.05057,54.528455 L 446.87442,64.441437 L 440.2246,55.657335 L 456.1524,43.627702 L 448.14441,32.956254 L 418.51129,55.269283 z M 486.01482,114.09454 L 472.32714,124.39558 L 511.37935,176.18297 L 525.01411,165.88193 L 486.01482,114.09454 z M 511.11477,95.203431 L 550.11407,146.95555 L 563.29022,137.04256 L 548.06797,116.84619 L 550.41393,115.06467 C 562.93744,105.62794 564.20743,98.695905 555.17639,86.719188 C 546.11007,74.671916 537.50235,75.271634 526.49577,83.614767 L 511.11477,95.203431 z M 503.0715,210.94896 L 487.70814,222.51999 L 526.70743,274.28974 L 539.90123,264.35912 L 524.67898,244.16274 L 527.06021,242.39887 C 539.54845,232.97977 540.81844,226.01246 531.80504,214.05338 C 522.72108,202.02375 514.131,202.62347 503.0715,210.94896 M 503.31844,401.58866 L 516.47696,391.67568 L 501.27235,371.49694 L 503.6183,369.7507 C 516.1771,360.27869 517.44709,353.36429 508.41604,341.38758 C 499.34972,329.3403 490.74201,329.92238 479.66487,338.26552 L 464.31915,349.8189 L 503.31844,401.58866 z M 464.54845,430.79844 L 478.21849,420.53268 L 439.2192,368.76293 L 425.54916,379.02869 L 464.54845,430.79844 z M 401.98378,437.3777 C 417.36477,457.80338 424.77305,462.17779 438.31962,451.96495 C 442.37653,448.89581 444.59902,445.38569 445.6397,440.79962 L 449.60842,442.05197 L 456.62865,436.8309 L 434.91534,408.04444 L 417.85866,420.88546 L 425.12583,430.56914 L 428.54775,427.99388 L 432.41063,433.12676 C 434.75659,436.1959 434.19215,438.55949 432.11078,440.12934 C 429.99412,441.71683 427.57761,441.611 425.26694,438.50658 L 407.45179,414.853 C 405.10584,411.76622 405.65264,409.45554 407.75165,407.85042 C 409.8683,406.26293 412.24953,406.36876 414.57785,409.47318 L 416.90617,412.47177 L 430.54093,402.20601 C 427.40123,398.02563 425.19638,395.62676 422.92098,394.1451 C 415.70673,389.43555 407.02846,391.65804 399.72602,397.14369 C 386.54986,407.10959 387.27305,417.86923 401.98378,437.3777 M 410.75024,361.65451 L 441.1771,338.7594 L 432.78105,327.68226 L 416.05951,340.2587 L 408.43956,330.2046 L 421.63335,320.25634 L 413.2373,309.16157 L 400.06115,319.09219 L 393.46426,310.29045 L 409.37442,298.27845 L 401.33114,287.607 L 371.75095,309.90239 L 410.75024,361.65451 z M 374.52023,389.01222 L 387.69638,379.06396 L 372.49177,358.88522 L 374.82009,357.08607 C 387.34361,347.68461 388.6136,340.73494 379.58255,328.75823 C 370.51623,316.71095 361.90852,317.32831 350.84902,325.63617 L 335.52094,337.24247 L 374.52023,389.01222 z M 335.75024,418.18673 L 349.40264,407.90333 L 310.38571,356.13358 L 296.75095,366.43461 L 335.75024,418.18673 z M 273.15029,424.78362 C 288.53129,445.17403 295.92193,449.54844 309.50377,439.35324 C 313.57832,436.28409 315.81844,432.79162 316.77094,428.1879 L 320.81021,429.45789 L 327.79516,424.16627 L 306.13477,395.43273 L 289.07809,408.29139 L 296.32762,417.95742 L 299.74954,415.34689 L 303.59478,420.51504 C 305.94074,423.60183 305.39394,425.94778 303.27729,427.53527 C 301.16064,429.1404 298.79704,428.96401 296.45109,425.87723 L 278.6183,402.22365 C 276.27235,399.13687 276.85443,396.80855 278.97108,395.22107 C 281.07009,393.63358 283.46896,393.77469 285.762,396.86147 L 288.05504,399.86006 L 301.74272,389.57666 C 298.56774,385.39628 296.36289,383.01504 294.10513,381.53339 C 286.87324,376.8062 278.24789,379.02869 270.89253,384.54962 C 257.75165,394.4626 258.43956,405.22224 273.15029,424.78362 M 281.91675,349.07807 L 312.34361,326.14769 L 303.98284,315.03527 L 287.22602,327.68226 L 279.60607,317.59289 L 292.79986,307.64463 L 284.42145,296.53221 L 271.22766,306.46284 L 264.63077,297.64346 L 280.54093,285.66674 L 272.49765,274.99529 L 242.91746,297.29068 L 281.91675,349.07807 z M 245.68674,376.40051 L 258.86289,366.43461 L 243.64065,346.29115 L 245.9866,344.47436 C 258.52776,335.03762 259.79775,328.12323 250.7667,316.12887 C 241.70038,304.09924 233.12795,304.68132 222.06845,313.02445 L 206.68745,324.63076 L 245.68674,376.40051 z M 206.91675,405.61029 L 220.60443,395.30926 L 181.56986,343.5395 L 167.91746,353.8229 L 206.91675,405.61029 z M 144.35208,412.17191 C 159.75071,432.57995 167.12371,436.95437 180.68792,426.72389 C 184.74483,423.65474 186.94968,420.17991 187.99036,415.55855 L 191.97672,416.82854 L 198.97931,411.57219 L 177.30128,382.82102 L 160.20932,395.69731 L 167.49413,405.32807 L 170.91605,402.77045 L 174.7613,407.88569 C 177.10725,410.97248 176.57809,413.31843 174.46144,414.90592 C 172.34479,416.47577 169.96355,416.38758 167.6176,413.28315 L 149.80245,389.64722 C 147.49178,386.5428 148.02094,384.19684 150.10231,382.60935 C 152.25424,381.02187 154.63547,381.1277 156.98143,384.23212 L 159.25683,387.28362 L 172.89159,376.98259 C 169.73425,372.78457 167.54704,370.38569 165.27164,368.90404 C 158.05739,364.21213 149.4144,366.43461 142.07668,371.95554 C 128.90053,381.86853 129.62371,392.62817 144.35208,412.17191 M 188.67828,241.60512 C 181.42875,236.89557 172.80339,239.11806 165.46567,244.63899 C 152.28952,254.56961 153.01271,265.31161 167.74107,284.83772 C 183.10443,305.2634 190.51271,309.62017 204.09455,299.42497 C 208.1691,296.35583 210.33867,292.84571 211.36172,288.25964 L 215.38336,289.52963 L 222.3683,284.25564 L 200.70791,255.50446 L 183.59831,268.34548 L 190.90076,278.02916 L 194.32268,275.43626 L 198.15029,280.56914 C 200.49624,283.67356 199.96708,286.00188 197.85043,287.607 C 195.75142,289.19449 193.37019,289.05338 191.02423,285.9666 L 173.19145,262.33066 C 170.84549,259.24388 171.39229,256.89793 173.54422,255.2928 C 175.60796,253.68767 178.00683,253.82878 180.35278,256.9332 L 182.64582,259.93179 L 196.28058,249.66603 C 193.14088,245.45037 190.93604,243.06914 188.67828,241.60512 M 204.97649,216.22295 L 191.32409,226.48871 L 230.32338,278.29374 L 243.95814,267.9927 L 204.97649,216.22295 z M 245.42216,185.72554 L 230.0588,197.27892 L 269.09337,249.06632 L 282.23425,239.1357 L 267.04728,218.95696 L 269.39323,217.21072 C 281.91675,207.73871 283.18674,200.78904 274.17334,188.8476 C 265.08938,176.80033 256.4993,177.3824 245.42216,185.72554 M 359.15687,290.88781 L 372.79163,280.58678 L 333.79234,228.83466 L 320.15758,239.11806 L 359.15687,290.88781 z M 302.36007,267.90451 C 304.44145,266.29938 306.85796,266.44049 309.15099,269.52728 L 311.46167,272.56114 L 325.11407,262.27775 C 321.95673,258.07972 319.76953,255.64557 317.49413,254.21683 C 310.27987,249.48965 301.63688,251.71213 294.29916,257.23306 C 281.10537,267.14604 281.8462,277.92332 296.55692,297.43179 C 311.92028,317.85747 319.31092,322.24952 332.87512,312.00141 C 336.94968,308.9499 339.17216,305.47506 340.15993,300.87135 L 344.21684,302.15898 L 351.20179,296.86735 L 329.52376,268.11618 L 312.4318,280.97483 L 319.73425,290.62323 L 323.15617,288.04797 L 326.98378,293.18085 C 329.32973,296.26763 328.80057,298.59595 326.68392,300.18344 C 324.58491,301.78856 322.18604,301.66509 319.84008,298.57831 L 302.02494,274.92474 C 299.66134,271.83795 300.20814,269.492 302.36007,267.90451 M 374.23801,198.33725 L 358.89229,209.90827 L 397.90922,261.67803 L 411.06774,251.72977 L 395.82785,231.56867 L 398.19144,229.78715 C 410.71496,220.35042 412.02023,213.40075 402.97155,201.42403 C 393.92286,189.41204 385.33279,189.99412 374.23801,198.33725 M 487.95508,303.48189 L 501.62512,293.21613 L 462.60819,241.44637 L 448.93815,251.71213 L 487.95508,303.48189 z M 431.14064,280.53386 C 433.25729,278.92873 435.65617,279.05221 437.98448,282.13899 L 440.25988,285.15522 L 453.92992,274.88946 C 450.79022,270.69143 448.58538,268.29256 446.32761,266.81091 C 439.06045,262.119 430.41745,264.34148 423.13265,269.82713 C 409.93886,279.77539 410.66205,290.53504 425.39041,310.07878 C 440.75377,330.46918 448.14441,334.86124 461.72625,324.64839 C 465.76553,321.56161 467.98801,318.06914 468.99342,313.46542 L 473.03269,314.73541 L 479.96473,309.47906 L 458.35725,280.71025 L 441.24765,293.5689 L 448.56774,303.23494 L 451.93674,300.65968 L 455.79963,305.79256 C 458.16322,308.87935 457.61642,311.2253 455.48213,312.81279 C 453.36548,314.40028 451.00189,314.29444 448.67357,311.17238 L 430.84079,287.51881 C 428.49483,284.43203 429.04163,282.12135 431.14064,280.53386 M 454.52964,153.19967 C 456.64629,151.59454 459.04516,151.71801 461.37348,154.80479 L 463.64887,157.8563 L 477.33655,147.53763 C 474.17921,143.37488 471.99201,140.97601 469.71661,139.49435 C 462.46708,134.76716 453.80645,137.00729 446.52164,142.51058 C 433.32785,152.4412 434.0334,163.20084 448.7794,182.74459 C 464.14276,203.13499 471.5334,207.52704 485.0976,197.29656 C 489.15452,194.2627 491.377,190.78786 492.38241,186.16651 L 496.40405,187.4365 L 503.389,182.16251 L 481.71096,153.37605 L 464.67192,166.25235 L 471.90381,175.93603 L 475.32573,173.34313 L 479.2239,178.47601 C 481.56985,181.58043 480.97014,183.92638 478.87112,185.51387 C 476.75447,187.08372 474.37324,186.96025 472.06256,183.87347 L 454.21214,160.20225 C 451.88382,157.11547 452.43062,154.78716 454.52964,153.19967 M 416.83561,182.99153 L 432.76341,170.9619 L 424.72014,160.27281 L 395.13994,182.58584 L 434.13923,234.37323 L 464.54845,211.46048 L 456.20532,200.34807 L 439.39558,212.95978 L 431.82856,202.88805 L 445.02235,192.93979 L 436.6263,181.82737 L 423.46778,191.75799 L 416.83561,182.99153 z M 325.73143,140.58795 C 327.83044,139.00047 330.22931,139.1063 332.57526,142.21072 L 334.81539,145.22695 L 348.50306,134.94355 C 345.36336,130.78081 343.15852,128.34666 340.88312,126.90028 C 333.65123,122.19073 325.00824,124.39558 317.67051,129.91651 C 304.512,139.82949 305.23519,150.58913 319.96355,170.16815 C 335.32691,190.55856 342.71755,194.93297 356.26412,184.72013 C 360.33867,181.63334 362.56115,178.15851 363.5842,173.55479 L 367.57056,174.82478 L 374.59079,169.58607 L 352.89511,140.78198 L 335.8208,153.64064 L 343.08796,163.32431 L 346.50988,160.74906 L 350.35513,165.84666 C 352.70109,168.96872 352.17192,171.31467 350.05527,172.90216 C 347.9739,174.50729 345.55739,174.36618 343.21144,171.26176 L 325.41393,147.59054 C 323.08561,144.50376 323.61478,142.1578 325.73143,140.58795 M 287.98448,170.34454 L 303.92992,158.33255 L 295.92193,147.6611 L 266.32409,169.99176 L 305.30574,221.74388 L 335.71496,198.84877 L 327.33655,187.73636 L 310.57973,200.36571 L 303.01271,190.27634 L 316.17122,180.36335 L 307.82809,169.2333 L 294.6343,179.16392 L 287.98448,170.34454 z M 138.19615,206.34524 L 140.57738,204.54609 C 153.1009,195.12699 154.37089,188.19496 145.33985,176.21825 C 136.27353,164.17097 127.66581,164.75305 116.58867,173.11382 L 101.22531,184.70249 L 140.25989,236.47224 L 153.4184,226.52398 L 138.19615,206.34524 z M 153.1009,336.46636 L 183.52776,313.51834 L 175.14935,302.42356 L 158.41017,315.03527 L 150.79022,304.98118 L 163.96638,295.03292 L 155.58797,283.93814 L 142.42945,293.86876 L 135.81492,285.04938 L 151.76036,273.03739 L 143.6818,262.38358 L 114.11925,284.67897 L 153.1009,336.46636 z M 114.84244,333.67944 L 117.18839,331.89792 C 129.69427,322.44355 130.96426,315.49388 121.93322,303.51716 C 112.86689,291.50517 104.25918,292.06961 93.234957,300.41274 L 77.871599,312.00141 L 116.87089,363.7888 L 130.04704,353.85818 L 114.84244,333.67944 z M 542.07079,321.77328 L 528.91228,331.7039 L 522.24483,322.88452 L 538.20791,310.89016 L 530.16463,300.20108 L 500.54916,322.53174 L 539.56609,374.31914 L 569.95767,351.38875 L 561.5969,340.2587 L 544.84008,352.92332 L 537.27305,342.79868 L 550.41393,332.88569 L 542.07079,321.77328 z"
     style="fill:#BCDC5A" />
  <path
     d="M 575.99012,58.530687 L 570.41627,58.530687 L 570.41627,31.349361 L 570.23988,31.349361 L 560.67968,58.530687 L 556.14652,58.530687 L 547.04492,31.349361 L 546.88617,31.349361 L 546.88617,58.530687 L 541.29468,58.530687 L 541.29468,24.011638 L 550.16698,24.011638 L 558.75705,49.67603 L 558.93344,49.67603 L 567.31185,24.011638 L 575.99012,24.011638 L 575.99012,58.530687 z M 537.32596,24.011638 L 537.32596,28.474243 L 527.81867,28.474243 L 527.81867,58.530687 L 522.24482,58.530687 L 522.24482,28.474243 L 512.75517,28.474243 L 512.75517,24.011638 L 537.32596,24.011638 z"
     style="fill:#000000" />
  <path
     style="fill:#000000"
     d="M 587.98801,587.98801 L 11.99435,587.98801 L 11.99435,11.99436 L 587.98801,11.99436 L 587.98801,587.98801 z M 0,600 L 600,600 L 600,0 L 0,0 L 0,600 z" />
  <path
     d="M 178.7988,83.972837 L 415.21107,83.972837 C 388.80585,219.57961 346.80797,361.18356 344.4091,514.7995 L 247.2019,514.7995 C 253.19908,397.18426 279.00458,280.7861 307.20896,166.76917 L 178.7988,166.76917 L 178.7988,83.972837 z"
     style="fill:#FFFFFF" />
</svg>
