<?xml version="1.0" encoding="UTF-8" standalone="no"?>
<!-- Created with Inkscape (http://www.inkscape.org/) -->
<svg xmlns="http://www.w3.org/2000/svg" width="600" height="600">
  <defs>
  </defs>
  <path
     style="fill:#99CC00"
     d="M 588.00565,587.98801 L 12.01199,587.98801 L 12.01199,11.99436 L 588.00565,11.99436 L 588.00565,587.98801 z" />
  <path
     style="fill:#000000"
     d="M 588.00565,587.98801 L 12.01199,587.98801 L 12.01199,11.99436 L 588.00565,11.99436 L 588.00565,587.98801 z M 0,600 L 600,600 L 600,0 L 0,0 L 0,600 z" />
  <path
     d="M 237.77567,325.28345 C 242.13244,331.05132 240.77426,333.27381 236.36457,336.62517 L 226.9102,324.06638 C 232.06071,320.20349 234.08917,320.3446 237.77567,325.28345 M 472.00074,477.80579 C 476.39279,483.57366 474.98169,485.84906 470.62491,489.12987 L 461.1529,476.58872 C 466.32106,472.72583 468.34951,472.91985 472.00074,477.80579 M 261.14702,197.94926 C 265.52144,203.71713 264.14561,205.99253 259.75356,209.29098 L 250.31683,196.76746 C 255.43207,192.88693 257.46052,193.06332 261.14702,197.94926 M 155.72017,58.020991 C 160.0593,63.788861 158.71876,66.046621 154.34434,69.362711 L 144.88997,56.821551 C 149.98757,52.941031 152.03367,53.117411 155.72017,58.020991 M 85.570831,439.97065 C 89.909961,445.75617 88.569421,447.99629 84.177371,451.33001 L 74.705351,438.77122 C 79.838231,434.90833 81.866691,435.0318 85.570831,439.97065 M 284.53602,70.632701 C 288.87515,76.382941 287.53461,78.675971 283.12492,81.974421 L 273.70582,69.415631 C 278.82106,65.570381 280.84952,65.729131 284.53602,70.632701 M 343.22017,465.17644 C 347.5593,470.94431 346.16584,473.23735 341.79143,476.55344 L 332.33705,463.977 C 337.45229,460.14939 339.49839,460.2905 343.22017,465.17644 M 366.60916,337.89516 C 370.93065,343.62776 369.60775,345.90316 365.18042,349.21924 L 355.74368,336.67809 C 360.8942,332.8152 362.88738,332.97395 366.60916,337.89516 M 518.814,223.17268 C 523.15314,228.94055 521.79495,231.21595 517.4029,234.5144 L 507.96617,221.95561 C 513.09904,218.11036 515.10986,218.26911 518.814,223.17268 M 413.36951,83.244411 C 417.70864,89.012291 416.36809,91.270051 411.97604,94.586131 L 402.53931,82.044981 C 407.65455,78.182091 409.68301,78.340841 413.36951,83.244411 M 389.98051,210.56097 C 394.31965,216.32884 392.9791,218.5866 388.58705,221.90269 L 379.15032,209.36153 C 384.23028,205.49864 386.29401,205.65739 389.98051,210.56097 M 542.20299,95.856121 C 546.54213,101.624 545.20158,103.88176 540.82717,107.18021 L 531.31988,94.639051 C 536.48804,90.776161 538.51649,90.952551 542.20299,95.856121 M 108.95982,312.6541 C 113.29895,318.42197 111.95841,320.6621 107.584,323.99582 L 98.129621,311.40175 C 103.24486,307.59178 105.27332,307.75052 108.95982,312.6541 M 214.38668,452.60001 C 218.72581,458.3326 217.38527,460.59036 212.99322,463.90645 L 203.55648,451.34765 C 208.67172,447.5024 210.70018,447.67879 214.38668,452.60001 M 495.38973,350.4716 C 499.78178,356.23947 498.40596,358.53251 494.01391,361.8486 L 484.57717,349.2898 C 489.67477,345.40927 491.70323,345.6033 495.38973,350.4716 M 16.056483,44.209842 L 25.510861,56.751001 C 29.902911,53.434911 31.243451,51.177151 26.904321,45.426917 C 23.200181,40.505703 21.189362,40.346954 16.056483,44.209842 M 132.33117,185.33754 C 136.70559,191.10542 135.32976,193.38082 130.93771,196.6969 L 121.48334,184.13811 C 126.59858,180.29286 128.62704,180.41633 132.33117,185.33754 M 583.67171,11.983831 L 567.72628,11.983831 L 573.51179,19.656691 L 583.67171,11.983831 z M 290.7625,13.342016 L 289.73945,11.983831 L 268.34364,11.983831 L 277.07482,23.64305 L 290.7625,13.342016 z M 343.34364,42.81638 C 358.74227,63.224421 366.11527,67.616471 379.67948,57.368351 C 383.73639,54.316851 385.94124,50.842011 386.98192,46.220661 L 390.96828,47.508291 L 397.97087,42.25194 L 376.29284,13.465487 L 359.20088,26.324142 L 366.48569,36.00782 L 369.90761,33.414922 L 373.75286,38.547801 C 376.09881,41.652222 375.56965,43.980538 373.453,45.568027 C 371.33635,47.155511 368.95511,47.032041 366.60916,43.945261 L 348.82929,20.291686 C 346.48334,17.204904 347.0125,14.858949 349.09387,13.271461 C 351.21052,11.683973 353.62703,11.772166 355.97299,14.894226 L 358.24839,17.928093 L 366.11527,11.983831 L 333.14843,11.983831 C 329.72652,19.797801 333.02496,29.146343 343.34364,42.81638 M 419.59599,25.953728 L 409.04801,11.983831 L 387.63456,11.983831 L 405.90831,36.254762 L 419.59599,25.953728 z M 472.19476,55.445731 C 487.54048,75.836131 494.93112,80.228191 508.49533,69.997711 C 512.56988,66.928561 514.81,63.436091 515.81541,58.850011 L 519.80177,60.120001 L 526.80436,54.846011 L 505.12633,26.094838 L 488.06965,38.935854 L 495.31918,48.619531 L 498.72346,46.026634 L 502.56871,51.141871 C 504.9323,54.263931 504.40314,56.574611 502.26885,58.179741 C 500.1522,59.767231 497.77096,59.661391 495.44265,56.539331 L 477.60986,32.903398 C 475.28155,29.798977 475.82835,27.470661 477.96264,25.883173 C 480.07929,24.278046 482.46052,24.401517 484.78884,27.4883 L 487.0466,30.522166 L 500.73427,20.23877 C 497.5593,16.076023 495.38973,13.641875 493.07905,12.195497 C 492.93794,12.089664 492.77919,12.089664 492.63808,11.983831 L 475.17571,11.983831 C 473.3942,12.883408 471.57741,13.941734 469.90173,15.229363 C 456.74321,25.124706 457.43112,35.901987 472.19476,55.445731 M 548.3942,38.56544 L 528.37421,11.983831 L 506.97839,11.983831 L 534.7418,48.866471 L 548.3942,38.56544 z M 71.071771,69.203961 L 101.46335,46.273577 L 93.137851,35.214076 L 76.363401,47.825791 L 68.761091,37.718779 L 81.937241,27.788159 L 73.558831,16.675741 L 60.400321,26.624001 L 53.768151,17.839899 L 61.511561,11.983831 L 39.304361,11.983831 L 32.072471,17.451846 L 71.071771,69.203961 z M 199.90526,81.833311 L 230.29684,58.902931 L 221.91843,47.808151 L 205.17925,60.437501 L 197.5593,50.330491 L 210.73545,40.417509 L 202.35704,29.305092 L 189.21617,39.218074 L 182.584,30.433972 L 198.51179,18.421978 L 193.69641,11.983831 L 184.84176,11.983831 L 160.87069,30.04592 L 199.90526,81.833311 z M 250.84599,44.791921 C 254.92054,41.705139 257.16067,38.247942 258.14844,33.626587 L 262.15243,34.896578 L 269.13738,29.622589 L 255.87304,11.983831 L 232.71335,11.983831 L 230.42031,13.747707 L 237.66984,23.378469 L 241.09176,20.820849 L 244.97228,25.953728 C 247.28296,29.022872 246.73616,31.368826 244.61951,32.973953 C 242.50286,34.561442 240.12162,34.43797 237.77567,31.31591 L 223.24133,11.983831 L 204.05036,11.983831 C 205.70841,17.151987 209.1656,23.096249 214.51015,30.222307 C 229.90878,50.612711 237.28178,55.004761 250.84599,44.791921 M 122.03014,32.162571 C 126.10469,29.093427 128.32718,25.600953 129.33259,21.032514 L 133.31895,22.267227 L 140.30389,17.010877 L 136.54684,11.983831 L 115.15102,11.983831 L 116.13879,13.306738 C 118.44947,16.428798 117.92031,18.757114 115.80366,20.344603 C 113.68701,21.932091 111.30578,21.826258 108.95982,18.721837 L 103.8975,11.983831 L 81.778491,11.983831 C 82.977931,13.800623 84.230281,15.617416 85.711941,17.610595 C 101.09293,38.000999 108.46594,42.39305 122.03014,32.162571 M 539.80412,512.34248 L 578.85633,564.11223 L 587.99321,557.14492 L 587.99321,547.8493 L 553.4918,502.02381 L 539.80412,512.34248 z M 504.12092,569.75664 L 490.94476,579.66962 L 484.33023,570.86788 L 500.24039,558.89116 L 492.21475,548.21971 L 462.61692,570.5151 L 475.81071,587.99511 L 502.99204,587.99511 L 512.49933,580.85141 L 504.12092,569.75664 z M 559.87703,574.07813 L 563.89867,575.33048 L 570.88361,570.09177 L 549.24086,541.32296 L 532.1489,554.19925 L 539.39843,563.83001 L 542.82035,561.25475 L 546.70088,566.38763 C 549.04683,569.47442 548.46475,571.80273 546.3481,573.39022 C 544.24909,574.97771 541.85022,574.87188 539.55718,571.76745 L 521.7244,548.13152 C 519.37844,545.00946 519.9076,542.68114 522.02426,541.11129 C 524.12327,539.5238 526.52214,539.64728 528.86809,542.73406 L 531.14349,545.78556 L 544.79589,535.46689 C 541.65619,531.30414 539.48663,528.85236 537.21123,527.40598 C 529.94406,522.69643 521.30107,524.91891 513.99862,530.45748 C 500.80483,540.37047 501.51038,551.09483 516.25638,570.65621 C 522.83564,579.3874 527.95088,585.01416 532.71334,587.99511 L 548.28837,587.99511 C 549.69947,587.21901 551.11057,586.35471 552.60986,585.20819 C 556.6315,582.15668 558.87162,578.68185 559.87703,574.07813 M 441.73263,586.2136 L 439.33376,587.99511 L 469.31965,587.99511 C 460.65902,577.50005 452.31588,578.25852 441.73263,586.2136 M 304.0974,580.28697 L 293.79637,587.99511 L 335.54731,587.99511 C 334.68301,586.47818 334.10093,585.08472 332.83094,583.3914 C 323.74698,571.34412 315.1569,571.90856 304.0974,580.28697 M 361.67031,584.8025 L 374.82882,574.87188 L 366.48569,563.7771 L 353.32717,573.69008 L 346.65972,564.90598 L 362.6228,552.91162 L 354.57953,542.22253 L 324.96405,564.5532 L 342.63809,587.99511 L 364.06918,587.99511 L 361.67031,584.8025 z M 204.01509,570.76205 C 194.94877,558.71477 186.34105,559.33213 175.28155,567.65762 L 159.91819,579.22865 L 166.49745,587.99511 L 187.15243,587.99511 L 180.14985,578.68185 C 185.26509,574.81896 187.31118,574.97771 190.99768,579.88128 C 193.8728,583.70889 194.06683,585.93138 192.74392,587.99511 L 208.67172,587.99511 C 210.54143,582.9857 209.23616,577.72935 204.01509,570.76205 M 257.1783,569.66844 L 240.43912,582.28015 L 232.8721,572.19078 L 245.99533,562.2778 L 237.66984,551.20066 L 224.49369,561.11364 L 217.86151,552.29427 L 233.78931,540.28227 L 225.74604,529.61082 L 196.13056,551.94149 L 223.32953,587.99511 L 255.97887,587.99511 L 265.57435,580.78086 L 257.1783,569.66844 z M 378.44477,587.99511 L 390.35093,587.99511 L 386.01179,582.28015 L 378.44477,587.99511 z M 578.57411,483.1327 L 587.99321,495.6033 L 587.99321,476.02428 L 578.57411,483.1327 z M 554.37374,391.6581 L 587.99321,436.26652 L 587.99321,407.85048 L 568.06141,381.33942 L 554.37374,391.6581 z M 570.08987,306.21595 L 577.35704,315.88199 L 580.77896,313.28909 L 584.64185,318.40433 C 586.9878,321.52639 586.42336,323.83707 584.28907,325.42456 C 582.19006,327.01205 579.82647,326.90622 577.48051,323.80179 L 559.683,300.14822 C 557.33705,297.06144 557.88385,294.73312 559.98286,293.14563 C 562.09951,291.54051 564.49838,291.64634 566.8267,294.75076 L 569.08446,297.80227 L 582.77214,287.48359 C 579.63244,283.32084 577.42759,280.90433 575.15219,279.44032 C 567.9203,274.73077 559.25967,276.93561 551.95723,282.47418 C 538.78108,292.38717 539.50426,303.14681 554.23263,322.69055 C 568.57294,341.74041 576.05177,346.66162 587.99321,338.90057 L 587.99321,294.46854 L 587.14655,293.3573 L 570.08987,306.21595 z M 575.32858,155.12235 C 562.17007,165.07061 562.87562,175.83025 577.62162,195.35636 C 581.50215,200.55979 584.88879,204.66962 587.99321,207.82696 L 587.99321,179.39328 L 583.072,172.8493 C 580.72604,169.74488 581.27284,167.41657 583.38949,165.82908 C 584.83587,164.73547 586.42336,164.52381 587.99321,165.45866 L 587.99321,149.79545 C 583.68935,150.27169 579.33258,152.12376 575.32858,155.12235 M 569.06682,68.269111 L 584.99462,56.257111 L 576.93371,45.568027 L 547.38879,67.898691 L 586.38808,119.65081 L 587.99321,118.43373 L 587.99321,93.404341 L 584.04213,88.165631 L 587.99321,85.184681 L 587.99321,67.775221 L 575.66372,77.053211 L 569.06682,68.269111 z M 587.99321,277.90575 L 587.99321,256.61577 L 577.78037,264.34154 L 587.99321,277.90575 z M 568.29072,225.57155 L 560.67077,215.48218 L 573.81165,205.55156 L 565.46852,194.45678 L 552.31,204.36976 L 545.69547,195.58566 L 561.60563,183.59131 L 553.56235,172.91986 L 523.9998,195.21525 L 562.99909,246.985 L 587.99321,228.12917 L 587.99321,216.92856 L 584.99462,212.9422 L 568.29072,225.57155 z M 51.316361,566.0525 L 60.770731,578.61129 C 65.162781,575.29521 66.538611,573.03744 62.181831,567.30485 C 58.495331,562.38364 56.449241,562.20725 51.316361,566.0525 M 11.999569,197.19079 L 11.999569,223.43726 L 24.611281,213.91233 L 11.999569,197.19079 z M 22.917961,260.44338 L 14.892325,249.77193 L 11.999569,251.94149 L 11.999569,268.66304 L 22.917961,260.44338 z M 16.532729,163.58896 C 15.015796,161.5605 13.516502,160.04357 11.999569,158.70302 L 11.999569,191.72277 C 24.223231,182.40951 25.475581,175.45984 16.532729,163.58896 M 22.953241,417.12846 L 11.999569,425.3834 L 11.999569,442.79286 L 31.331651,428.22324 L 22.953241,417.12846 z M 54.703001,300.90669 L 46.342231,289.81191 L 29.603051,302.42362 L 22.000744,292.36953 L 35.176901,282.42127 L 26.798491,271.32649 L 13.622334,281.23947 L 11.999569,279.08754 L 11.999569,307.52122 L 24.293781,323.83707 L 54.703001,300.90669 z M 51.880801,414.12987 C 55.937711,411.04309 58.142561,407.56826 59.165611,402.98218 L 63.187241,404.25217 L 70.172191,398.9429 L 48.494161,370.19173 L 31.402201,383.08566 L 38.687011,392.73406 L 42.108931,390.1588 L 45.971821,395.29168 C 48.300131,398.37846 47.753331,400.72442 45.654321,402.32954 C 43.520031,403.91703 41.138801,403.77592 38.828121,400.65386 L 20.995335,377.01793 C 18.667019,373.91351 19.196182,371.56755 21.312833,369.98006 C 23.429481,368.39257 25.810721,368.55132 28.156671,371.63811 L 30.432071,374.63669 L 44.084471,364.37094 C 40.927131,360.15527 38.739921,357.79168 36.499801,356.31003 C 29.232631,351.60048 20.589644,353.82296 13.269559,359.30861 C 12.775674,359.69667 12.458176,360.06708 11.999569,360.43749 L 11.999569,394.51558 C 13.11081,396.15598 14.204413,397.77875 15.544959,399.52498 C 30.925951,419.9683 38.298961,424.36035 51.880801,414.12987 M 78.091991,173.60777 L 69.731221,162.51299 L 52.974401,175.14234 L 45.389741,165.03533 L 58.548251,155.08707 L 50.187481,144.00993 L 37.011331,153.92292 L 30.379151,145.12118 L 46.306951,133.12682 L 38.263681,122.45537 L 11.999569,142.2637 L 11.999569,149.17809 L 47.700411,196.52052 L 78.091991,173.60777 z M 34.841761,96.526401 L 11.999569,66.205371 L 11.999569,32.656456 C 22.653381,24.877764 31.067061,24.542627 39.904081,36.272401 C 48.917491,48.249121 47.665141,55.198791 35.159261,64.635521 L 32.778021,66.417041 L 48.000271,86.595781 L 34.841761,96.526401 z M 20.695476,491.68749 C 17.555777,487.47183 15.368571,485.07296 13.093172,483.60894 C 12.740396,483.362 12.352344,483.362 11.999569,483.15033 L 11.999569,498.23147 L 20.695476,491.68749 z M 128.36245,557.05673 L 111.65855,569.66844 L 104.05625,559.57907 L 117.2324,549.64845 L 108.85399,538.53603 L 95.677841,548.48429 L 89.028021,539.71783 L 104.97346,527.6882 L 96.947831,517.01675 L 67.349991,539.31214 L 104.02097,587.99511 L 110.42384,587.99511 L 136.74086,568.13387 L 128.36245,557.05673 z M 70.419131,586.49582 L 68.443591,587.99511 L 47.206531,587.99511 L 31.102341,566.63458 L 46.465701,555.04591 C 57.525201,546.70278 66.115281,546.13834 75.181601,558.15033 C 84.230281,570.10941 82.942651,577.04144 70.419131,586.49582 M 28.491811,541.42879 C 32.566361,538.35965 34.771201,534.86717 35.776611,530.26346 L 39.798251,531.53345 L 46.765561,526.2771 L 25.105161,497.52592 L 11.999569,507.36835 L 11.999569,515.65857 L 15.315655,520.03298 L 18.719935,517.47536 L 22.565181,522.57296 C 24.911141,525.67738 24.364341,528.02333 22.265326,529.61082 C 20.148675,531.18067 17.767442,531.09248 15.421488,527.98806 L 11.999569,523.43726 L 11.999569,545.8914 C 17.114808,547.67291 22.124216,546.22653 28.491811,541.42879 M 578.433,454.69902 L 585.47087,449.42503 L 563.79283,420.65621 L 546.70088,433.51487 L 553.98568,443.19855 L 557.4076,440.58801 L 561.25285,445.70325 C 563.59881,448.84295 563.06965,451.13599 560.95299,452.74112 C 558.83634,454.3286 556.45511,454.20513 554.10916,451.11835 L 536.27637,427.46478 C 533.93042,424.37799 534.45958,422.03204 536.59387,420.44455 C 538.71052,418.8747 541.07411,418.96289 543.43771,422.04968 L 545.69547,425.11882 L 559.38314,414.78251 C 556.22581,410.61976 554.0386,408.20325 551.7632,406.7216 C 544.49603,402.01205 535.85304,404.25217 528.56823,409.7731 C 515.39208,419.72136 516.11527,430.46336 530.84363,450.02475 C 546.18935,470.37987 553.56235,474.77192 567.1442,464.54144 C 571.23639,461.4723 573.44123,458.0151 574.42901,453.41139 L 578.433,454.69902 z M 546.57741,478.68773 L 538.23427,467.59295 L 521.47745,480.20466 L 513.89279,470.09765 L 527.06894,460.18467 L 518.69053,449.10753 L 505.49674,458.98524 L 498.84693,450.23641 L 514.81,438.22442 L 506.78437,427.53533 L 477.18653,449.84836 L 516.18583,501.60047 L 546.57741,478.68773 z M 493.07905,518.97465 L 477.90972,498.81355 L 480.25568,497.03204 C 492.77919,487.61294 494.06682,480.64563 485.01814,468.70419 C 475.96946,456.65692 467.34411,457.25664 456.2846,465.58213 L 440.95652,477.13552 L 479.95582,528.90527 L 493.07905,518.97465 z M 454.82059,547.81402 L 415.82129,496.04427 L 402.18653,506.36294 L 441.18583,558.13269 L 454.82059,547.81402 z M 433.21311,564.12987 L 411.57035,535.34342 L 394.4784,548.21971 L 401.7632,557.85047 L 405.18512,555.29285 L 409.03037,560.40809 C 411.37633,563.49488 410.82952,565.84083 408.73051,567.44596 C 406.61386,569.03345 404.23263,568.89234 401.88667,565.82319 L 384.05389,542.16962 C 381.74321,539.04756 382.29001,536.73688 384.40667,535.14939 C 386.48804,533.57954 388.90455,533.66774 391.2505,536.75452 L 393.50826,539.80602 L 407.12539,529.48735 C 403.98569,525.3246 401.81612,522.90809 399.54072,521.42644 C 392.32647,516.71689 383.66584,518.93937 376.32811,524.47794 C 363.1696,534.40856 363.89279,545.15057 378.58588,564.69431 C 394.00215,585.08472 401.39279,589.47677 414.93936,579.24629 C 419.01391,576.17714 421.20111,572.68467 422.2418,568.09859 L 426.22816,569.36858 L 433.21311,564.12987 z M 387.35234,488.98876 L 417.79683,466.09366 L 409.40079,454.9636 L 392.67924,467.61059 L 385.0593,457.48594 L 398.21781,447.57296 L 389.85704,436.49582 L 376.68089,446.4088 L 370.08399,437.58942 L 386.01179,425.57743 L 377.95088,414.90598 L 348.35304,437.23665 L 387.35234,488.98876 z M 364.31612,506.38058 L 349.05859,486.1842 L 351.43983,484.42032 C 363.96334,474.98359 365.23334,468.03392 356.20229,456.09248 C 347.13597,444.04521 338.52826,444.62729 327.46875,452.95278 L 312.08776,464.52381 L 351.13997,516.29356 L 364.31612,506.38058 z M 326.04002,535.23759 L 287.00544,483.46783 L 273.35304,493.73359 L 312.35234,545.50334 L 326.04002,535.23759 z M 304.4149,551.50052 L 282.71923,522.71407 L 265.68019,535.59036 L 272.92971,545.23876 L 276.35163,542.68114 L 280.19688,547.81402 C 282.54284,550.88316 281.99604,553.2644 279.89702,554.83425 C 277.78037,556.42173 275.39914,556.28062 273.05319,553.19384 L 255.23804,529.54027 C 252.90972,526.45348 253.45653,524.14281 255.55554,522.55532 C 257.68983,520.93255 260.07106,521.05603 262.39938,524.17809 L 264.67478,527.17667 L 278.36245,516.91092 C 275.16984,512.71289 272.98263,510.31402 270.74251,508.81473 C 263.49298,504.14046 254.83235,506.36294 247.49463,511.84859 C 234.37139,521.81449 235.0593,532.5565 249.77003,552.0826 C 265.13338,572.473 272.5593,576.88269 286.12351,566.66985 C 290.19806,563.56543 292.38526,560.07296 293.37304,555.50452 L 297.41231,556.75687 L 304.4149,551.50052 z M 258.57177,476.35941 L 288.96335,453.44667 L 280.60257,442.35189 L 263.84575,454.9636 L 256.26109,444.90951 L 269.40196,434.94361 L 261.07647,423.83119 L 247.90032,433.77945 L 241.25051,425.01299 L 257.1783,412.98335 L 249.11739,402.32954 L 219.53719,424.6073 L 258.57177,476.35941 z M 235.48263,493.75123 L 220.26038,473.59013 L 222.60634,471.79097 C 235.12986,462.37188 236.39985,455.40457 227.42172,443.46313 C 218.30248,431.4335 209.74768,432.01557 198.68818,440.34107 L 183.30719,451.94737 L 222.30648,503.71713 L 235.48263,493.75123 z M 197.22417,522.60824 L 158.22487,470.82084 L 144.5372,481.13952 L 183.53649,532.89163 L 197.22417,522.60824 z M 175.61669,538.87117 L 153.92101,510.13763 L 136.8467,522.99629 L 144.11387,532.62705 L 147.53578,530.05179 L 151.41631,535.18467 C 153.72699,538.28909 153.18019,540.61741 151.08117,542.22253 C 148.96452,543.81002 146.58329,543.66891 144.23734,540.58213 L 126.43983,516.92856 C 124.11151,513.84177 124.64068,511.51346 126.75733,509.92597 C 128.85634,508.33848 131.23757,508.44431 133.58353,511.5311 L 135.85893,514.56496 L 149.52896,504.28157 C 146.38926,500.10118 144.20206,497.68467 141.92666,496.22065 C 134.65949,491.49347 126.03414,493.73359 118.67878,499.25452 C 105.55554,509.1675 106.27873,519.92714 120.98945,539.45325 C 136.35281,559.86129 143.72581,564.25334 157.29002,554.02286 C 161.36457,550.95372 163.58705,547.49652 164.59246,542.89281 L 168.57882,544.14516 L 175.61669,538.87117 z M 129.75592,463.78298 L 160.12986,440.85259 L 151.76909,429.77545 L 135.01227,442.35189 L 127.40996,432.28016 L 140.58611,422.3319 L 132.2077,411.25476 L 119.06683,421.18538 L 112.41702,412.38364 L 128.36245,400.37164 L 120.33682,389.71783 L 90.721341,411.99558 L 129.75592,463.78298 z M 106.66678,481.13952 L 91.444531,460.97842 L 93.790491,459.17926 C 106.31401,449.74253 107.584,442.82813 98.552951,430.85142 C 89.486631,418.82178 80.896561,419.38622 69.837061,427.747 L 54.473701,439.30038 L 93.490631,491.08778 L 106.66678,481.13952 z M 68.408321,510.01416 L 29.391381,458.24441 L 15.721347,468.51016 L 54.720641,520.29756 L 68.408321,510.01416 z M 78.109631,392.96336 L 91.797311,382.69761 L 52.762741,330.92785 L 39.110341,341.22889 L 78.109631,392.96336 z M 75.252151,286.77804 C 79.326711,283.74417 81.549191,280.2517 82.536961,275.64798 L 86.576241,276.91798 L 93.561181,271.64399 L 71.883151,242.87517 L 54.791191,255.75147 L 62.076001,265.41751 L 65.480281,262.84225 L 69.360811,267.97513 C 71.689121,271.06191 71.142321,273.37259 69.043311,274.96007 C 66.926661,276.5652 64.545431,276.44173 62.199471,273.35495 L 44.401971,249.70137 C 42.056011,246.59695 42.585171,244.26863 44.701821,242.66351 C 46.800841,241.09366 49.199711,241.18185 51.528021,244.33919 L 53.821061,247.33778 L 67.473461,237.03674 C 64.333761,232.874 62.111281,230.45749 59.871161,228.99347 C 52.639271,224.28392 43.961001,226.48877 36.640911,232.0097 C 23.500041,241.92268 24.205591,252.69996 38.916311,272.22607 C 54.297311,292.63411 61.670311,297.02616 75.252151,286.77804 M 62.516971,213.89469 L 101.51626,265.66445 L 115.15102,255.38105 L 76.151731,203.59366 L 62.516971,213.89469 z M 98.676421,159.47912 C 102.69806,156.40998 104.93818,152.91751 105.92595,148.33143 L 109.96523,149.58378 L 116.95018,144.32743 L 95.254511,115.55862 L 78.197831,128.43491 L 85.447361,138.08331 L 88.869271,135.52569 L 92.749801,140.64093 C 95.095761,143.72771 94.548961,146.07367 92.432301,147.66116 C 90.298011,149.24865 87.916781,149.10754 85.570831,146.02075 L 67.773321,122.36718 C 65.427371,119.2804 65.991811,116.96972 68.090821,115.36459 C 70.207471,113.7771 72.588701,113.88294 74.917021,116.98736 L 77.192421,120.02122 L 90.862451,109.72019 C 87.722761,105.5398 85.517911,103.14093 83.277791,101.67691 C 76.010621,96.949731 67.367631,99.172211 60.047541,104.69314 C 46.889031,114.62376 47.594581,125.38341 62.322941,144.90951 C 77.686301,165.29991 85.076941,169.69197 98.676421,159.47912 M 85.870691,86.578141 L 124.86998,138.34789 L 138.54002,128.04686 L 99.558361,76.277101 L 85.870691,86.578141 z M 124.64068,57.368351 L 163.63997,109.13811 L 176.81612,99.189851 L 161.59387,79.028751 L 163.93983,77.264871 C 176.46335,67.828141 177.73334,60.860831 168.75521,48.901751 C 159.63597,36.85448 151.08117,37.436559 140.00403,45.779692 L 124.64068,57.368351 z M 179.00333,156.58637 L 165.82718,166.53463 L 159.21264,157.73289 L 175.1228,145.72089 L 167.09717,135.04944 L 137.51697,157.34484 L 176.51626,209.11459 L 206.92548,186.21948 L 198.56471,175.1247 L 181.80789,187.75405 L 174.20559,177.66468 L 187.38174,167.71642 L 179.00333,156.58637 z M 191.13879,157.52122 C 206.50215,177.9469 213.89279,182.32132 227.49227,172.09084 C 231.51391,169.02169 233.73639,165.51158 234.75944,160.9255 L 238.78108,162.19549 L 245.78367,156.9215 L 224.07036,128.17033 L 206.99604,141.02898 L 214.26321,150.69502 L 217.68512,148.11976 L 221.58329,153.25264 C 223.92924,156.33943 223.32953,158.66774 221.26579,160.25523 C 219.11386,161.84272 216.73263,161.73689 214.38668,158.61483 L 196.58917,134.97889 C 194.24322,131.89211 194.79002,129.56379 196.90667,127.95866 C 199.02332,126.37118 201.40455,126.49465 203.75051,129.59907 L 206.02591,132.6153 L 219.6783,122.3319 C 216.53861,118.15151 214.3514,115.735 212.09364,114.27099 C 204.82647,109.56144 196.16584,111.80156 188.88103,117.28722 C 175.70488,127.21784 176.42807,137.99512 191.13879,157.52122 M 214.68654,99.172211 L 253.68583,150.94197 L 267.37351,140.67621 L 228.37421,88.888821 L 214.68654,99.172211 z M 253.45653,69.962431 L 292.45582,121.74982 L 305.63197,111.8192 L 290.40972,91.622821 L 292.75568,89.858951 C 305.29684,80.422211 306.56683,73.490181 297.53578,61.513461 C 288.45182,49.466191 279.89702,50.065911 268.81988,58.391401 L 253.45653,69.962431 z M 289.68653,42.67527 L 328.73875,94.427391 L 359.11269,71.532281 L 350.73428,60.402221 L 334.03037,73.031571 L 326.39279,62.942201 L 339.56894,53.011581 L 331.19053,41.916804 L 318.04966,51.829781 L 311.39985,43.028045 L 327.34528,31.03369 L 319.31965,20.344603 L 289.68653,42.67527 z M 357.17242,101.50053 L 343.52002,111.80156 L 382.51932,163.55368 L 396.18936,153.27028 L 357.17242,101.50053 z M 382.29001,82.591781 L 421.28931,134.36153 L 434.46546,124.41327 L 419.24321,104.25217 L 421.58917,102.47066 C 434.11269,93.033921 435.41795,86.101891 426.40455,74.125171 C 417.32059,62.077901 408.73051,62.677621 397.67101,71.020751 L 382.29001,82.591781 z M 418.52002,55.269341 L 457.50168,107.0391 L 487.94617,84.143991 L 479.55013,73.031571 L 462.82858,85.643281 L 455.24392,75.571551 L 468.36715,65.640931 L 460.0593,54.528511 L 446.88315,64.441501 L 440.23333,55.657401 L 456.16113,43.627763 L 448.15314,32.973953 L 418.52002,55.269341 z M 486.02355,114.0946 L 472.33587,124.39564 L 511.38808,176.18303 L 525.02284,165.86436 L 486.02355,114.0946 z M 511.1235,95.203491 L 550.1228,146.97325 L 563.29895,137.04262 L 548.0767,116.84625 L 550.42266,115.06473 C 562.94617,105.628 564.21616,98.695961 555.18512,86.719251 C 546.1188,74.671981 537.51108,75.271691 526.5045,83.614831 L 511.1235,95.203491 z M 503.08023,210.93138 L 487.71687,222.53768 L 526.71616,274.2898 L 539.90996,264.35918 L 524.68771,244.1628 L 527.06894,242.39893 C 539.55718,232.97983 540.82717,226.01252 531.81377,214.07108 C 522.72981,202.02381 514.13973,202.62353 503.08023,210.93138 M 503.32717,401.58872 L 516.48569,391.67574 L 501.28108,371.497 L 503.62703,369.75076 C 516.18583,360.27875 517.45582,353.36435 508.42477,341.38764 C 499.35845,329.34036 490.75074,329.92244 479.6736,338.26558 L 464.32788,349.81896 L 503.32717,401.58872 z M 464.55718,430.7985 L 478.22722,420.53274 L 439.22793,368.76299 L 425.55789,379.02875 L 464.55718,430.7985 z M 401.99251,437.37776 C 417.3735,457.80344 424.78178,462.17785 438.32835,451.96501 C 442.38526,448.89587 444.60775,445.38575 445.64843,440.79968 L 449.61715,442.05203 L 456.63738,436.83096 L 434.92407,408.0445 L 417.86739,420.88552 L 425.13456,430.5692 L 428.55648,427.99394 L 432.41936,433.12682 C 434.76532,436.19596 434.20088,438.55955 432.11951,440.1294 C 430.00285,441.71689 427.58634,441.61106 425.27567,438.50664 L 407.46052,414.85306 C 405.11457,411.76628 405.66137,409.4556 407.76038,407.85048 C 409.87703,406.26299 412.25826,406.36882 414.58658,409.47324 L 416.9149,412.47183 L 430.54966,402.20607 C 427.40996,398.02569 425.20511,395.62682 422.92971,394.14516 C 415.71546,389.43561 407.03719,391.6581 399.73475,397.14375 C 386.55859,407.10965 387.28178,417.86929 401.99251,437.37776 M 410.75897,361.65457 L 441.18583,338.75946 L 432.78978,327.68232 L 416.06824,340.25876 L 408.44829,330.20466 L 421.64208,320.2564 L 413.24603,309.16163 L 400.06988,319.09225 L 393.47299,310.29051 L 409.38315,298.27851 L 401.33987,287.60706 L 371.75968,309.90245 L 410.75897,361.65457 z M 374.52896,389.01228 L 387.70511,379.06402 L 372.5005,358.88528 L 374.82882,357.08613 C 387.35234,347.68467 388.62233,340.735 379.59128,328.75829 C 370.52496,316.71101 361.91725,317.32837 350.85775,325.63623 L 335.52967,337.24253 L 374.52896,389.01228 z M 335.75897,418.18679 L 349.41137,407.90339 L 310.39444,356.13364 L 296.75968,366.43467 L 335.75897,418.18679 z M 273.15902,424.78368 C 288.54002,445.17409 295.93066,449.5485 309.5125,439.3533 C 313.58705,436.28415 315.82717,432.79168 316.77967,428.18796 L 320.81894,429.45795 L 327.80389,424.16633 L 306.1435,395.43279 L 289.08682,408.29145 L 296.33635,417.95748 L 299.75827,415.34695 L 303.60351,420.5151 C 305.94947,423.60189 305.40267,425.94784 303.28602,427.53533 C 301.16937,429.14046 298.80577,428.96407 296.45982,425.87729 L 278.62703,402.22371 C 276.28108,399.13693 276.86316,396.80861 278.97981,395.22113 C 281.07882,393.63364 283.47769,393.77475 285.77073,396.86153 L 288.06377,399.86012 L 301.75145,389.57672 C 298.57647,385.39634 296.37162,383.0151 294.11386,381.53345 C 286.88197,376.80626 278.25662,379.02875 270.90126,384.54968 C 257.76038,394.46266 258.44829,405.2223 273.15902,424.78368 M 281.92548,349.07813 L 312.35234,326.14775 L 303.99157,315.03533 L 287.23475,327.68232 L 279.6148,317.59295 L 292.80859,307.64469 L 284.43018,296.53227 L 271.23639,306.4629 L 264.6395,297.64352 L 280.54966,285.6668 L 272.50638,274.99535 L 242.92619,297.29074 L 281.92548,349.07813 z M 245.69547,376.40057 L 258.87162,366.43467 L 243.64938,346.29121 L 245.99533,344.47442 C 258.53649,335.03768 259.80648,328.12329 250.77543,316.12893 C 241.70911,304.0993 233.13668,304.68138 222.07718,313.02451 L 206.69618,324.63082 L 245.69547,376.40057 z M 206.92548,405.61035 L 220.61316,395.30932 L 181.57859,343.53956 L 167.92619,353.82296 L 206.92548,405.61035 z M 144.36081,412.17197 C 159.75944,432.58001 167.13244,436.95443 180.69665,426.72395 C 184.75356,423.6548 186.95841,420.17997 187.99909,415.55861 L 191.98545,416.8286 L 198.98804,411.57225 L 177.31001,382.82108 L 160.21805,395.69737 L 167.50286,405.32813 L 170.92478,402.77051 L 174.77003,407.88575 C 177.11598,410.97254 176.58682,413.31849 174.47017,414.90598 C 172.35352,416.47583 169.97228,416.38764 167.62633,413.28321 L 149.81118,389.64728 C 147.50051,386.54286 148.04731,384.1969 150.11104,382.60941 C 152.26297,381.02193 154.6442,381.12776 156.99016,384.23218 L 159.26556,387.28368 L 172.90032,376.98265 C 169.74298,372.78463 167.55577,370.38575 165.28037,368.9041 C 158.06612,364.21219 149.42313,366.43467 142.08541,371.9556 C 128.90926,381.86859 129.63244,392.62823 144.36081,412.17197 M 188.68701,241.60518 C 181.43748,236.89563 172.81212,239.11812 165.4744,244.63905 C 152.29825,254.56967 153.03908,265.31167 167.7498,284.83778 C 183.11316,305.26346 190.52144,309.62023 204.10328,299.42503 C 208.17783,296.35589 210.3474,292.84577 211.37045,288.2597 L 215.39209,289.52969 L 222.37703,284.2557 L 200.71664,255.50452 L 183.60704,268.34554 L 190.90949,278.02922 L 194.33141,275.43632 L 198.15902,280.5692 C 200.50497,283.67362 199.97581,286.00194 197.85916,287.60706 C 195.76015,289.19455 193.37892,289.05344 191.03296,285.96666 L 173.20018,262.33072 C 170.85422,259.24394 171.40102,256.89799 173.55295,255.29286 C 175.61669,253.68773 178.01556,253.82884 180.36151,256.93326 L 182.65455,259.93185 L 196.28931,249.66609 C 193.14961,245.45043 190.94477,243.0692 188.68701,241.60518 M 204.98522,216.20537 L 191.33282,226.48877 L 230.33211,278.2938 L 243.96687,267.99276 L 204.98522,216.20537 z M 245.43089,185.7256 L 230.06753,197.27898 L 269.1021,249.06638 L 282.24298,239.13576 L 267.05601,218.95702 L 269.40196,217.19314 C 281.92548,207.73877 283.19547,200.80673 274.18207,188.83002 C 265.09811,176.78275 256.50803,177.38246 245.43089,185.7256 M 359.1656,290.88787 L 372.80036,280.58684 L 333.80107,228.83472 L 320.16631,239.11812 L 359.1656,290.88787 z M 302.3688,267.90457 C 304.45018,266.29944 306.86669,266.44055 309.15972,269.52734 L 311.4704,272.5612 L 325.1228,262.27781 C 321.96546,258.07978 319.77826,255.64563 317.50286,254.21689 C 310.2886,249.48971 301.64561,251.71219 294.30789,257.23312 C 281.1141,267.1461 281.85493,277.92338 296.56565,297.43185 C 311.92901,317.85753 319.31965,322.24958 332.88385,312.00147 C 336.95841,308.94996 339.18089,305.47512 340.16866,300.87141 L 344.22557,302.15904 L 351.21052,296.86741 L 329.53249,268.11624 L 312.44053,280.97489 L 319.74298,290.62329 L 323.1649,288.04803 L 326.99251,293.18091 C 329.33846,296.26769 328.8093,298.59601 326.69265,300.1835 C 324.59364,301.78862 322.19477,301.66515 319.84881,298.57837 L 302.03367,274.9248 C 299.67007,271.83801 300.21687,269.49206 302.3688,267.90457 M 374.24674,198.33731 L 358.90102,209.90833 L 397.91795,261.67809 L 411.07647,251.72983 L 395.83658,231.56873 L 398.20017,229.78721 C 410.72369,220.35048 412.02896,213.41845 402.98028,201.44173 C 393.93159,189.39446 385.34152,189.99418 374.24674,198.33731 M 487.96381,303.48195 L 501.63385,293.21619 L 462.61692,241.44643 L 448.94688,251.71219 L 487.96381,303.48195 z M 431.14937,280.53392 C 433.26602,278.92879 435.6649,279.05227 437.99321,282.13905 L 440.26861,285.15528 L 453.93865,274.88952 C 450.79895,270.69149 448.59411,268.29262 446.33634,266.81097 C 439.06918,262.11906 430.42618,264.34154 423.14138,269.82719 C 409.94759,279.77545 410.67078,290.5351 425.39914,310.07884 C 440.7625,330.46924 448.15314,334.8613 461.73498,324.64845 C 465.77426,321.56167 467.99674,318.0692 469.00215,313.46548 L 473.04142,314.73547 L 479.97346,309.47912 L 458.36598,280.71031 L 441.25638,293.56896 L 448.57647,303.235 L 451.94547,300.65974 L 455.80836,305.79262 C 458.17195,308.87941 457.62515,311.22536 455.49086,312.81285 C 453.37421,314.40034 451.01062,314.2945 448.6823,311.17244 L 430.84952,287.51887 C 428.50356,284.43209 429.05036,282.12141 431.14937,280.53392 M 454.53837,153.18209 C 456.65502,151.5946 459.05389,151.71807 461.38221,154.82249 L 463.6576,157.85636 L 477.34528,147.53769 C 474.18794,143.37494 472.00074,140.97607 469.72534,139.49441 C 462.47581,134.76722 453.81518,137.00735 446.53037,142.493 C 433.33658,152.44126 434.04213,163.2009 448.78813,182.74465 C 464.15149,203.15269 471.54213,207.5271 485.10633,197.31426 C 489.16325,194.24512 491.38573,190.78792 492.39114,186.16657 L 496.41278,187.43656 L 503.39773,182.16257 L 481.71969,153.37611 L 464.68065,166.23477 L 471.91254,175.93609 L 475.33446,173.36083 L 479.23263,178.49371 C 481.57858,181.58049 480.97887,183.92644 478.87985,185.51393 C 476.7632,187.08378 474.38197,186.97795 472.07129,183.87353 L 454.22087,160.20231 C 451.89255,157.09789 452.43935,154.78722 454.53837,153.18209 M 416.84434,182.97395 L 432.77214,170.96196 L 424.72887,160.27287 L 395.14867,182.5859 L 434.14796,234.37329 L 464.55718,211.46054 L 456.21405,200.34813 L 439.40431,212.95984 L 431.83729,202.88811 L 445.03108,192.95749 L 436.63503,181.84507 L 423.47651,191.75805 L 416.84434,182.97395 z M 325.74016,140.58801 C 327.83917,139.00053 330.23804,139.10636 332.58399,142.19314 L 334.82412,145.22701 L 348.51179,134.94361 C 345.37209,130.78087 343.16725,128.34672 340.89185,126.90034 C 333.65996,122.19079 325.01697,124.39564 317.67924,129.91657 C 304.52073,139.82955 305.24392,150.60683 319.97228,170.16821 C 335.33564,190.54098 342.72628,194.95067 356.27285,184.72019 C 360.3474,181.6334 362.56988,178.15857 363.59293,173.57249 L 367.57929,174.82484 L 374.59952,169.56849 L 352.90384,140.78204 L 335.82953,153.6407 L 343.09669,163.30674 L 346.51861,160.73148 L 350.36386,165.84672 C 352.70982,168.96878 352.18065,171.31473 350.064,172.90222 C 347.98263,174.48971 345.56612,174.3486 343.22017,171.27945 L 325.42266,147.5906 C 323.09434,144.50382 323.62351,142.15786 325.74016,140.58801 M 287.99321,170.36224 L 303.93865,158.33261 L 295.93066,147.66116 L 266.33282,169.99182 L 305.31447,221.74394 L 335.72369,198.84883 L 327.34528,187.75405 L 310.58846,200.36577 L 303.02144,190.25876 L 316.17995,180.34578 L 307.83682,169.23336 L 294.64303,179.16398 L 287.99321,170.36224 z M 138.20488,206.3453 L 140.58611,204.54615 C 153.10963,195.12705 154.37962,188.17738 145.34858,176.21831 C 136.28226,164.1534 127.67454,164.73547 116.61504,173.11388 L 101.23404,184.68491 L 140.26862,236.4723 L 153.40949,226.54168 L 138.20488,206.3453 z M 153.10963,336.46642 L 183.53649,313.5184 L 175.15808,302.42362 L 158.4189,315.03533 L 150.79895,304.98124 L 163.97511,295.03298 L 155.5967,283.9382 L 142.42054,293.86882 L 135.82365,285.04944 L 151.76909,273.03745 L 143.69053,262.38364 L 114.11034,284.67903 L 153.10963,336.46642 z M 114.85117,333.6795 L 117.19712,331.89798 C 129.72064,322.44361 130.97299,315.49394 121.94195,303.51722 C 112.87562,291.50523 104.26791,292.06967 93.261331,300.4128 L 77.880331,312.00147 L 116.87962,363.78886 L 130.05577,353.85824 L 114.85117,333.6795 z M 542.07952,321.77334 L 528.92101,331.70396 L 522.25356,322.88458 L 538.21664,310.89022 L 530.17336,300.20114 L 500.55789,322.5318 L 539.57482,374.3192 L 569.9664,351.38881 L 561.60563,340.25876 L 544.84881,352.92338 L 537.28178,342.79874 L 550.42266,332.88575 L 542.07952,321.77334 z"
     style="fill:#BCDC5A" />
  <path
     d="M 259.21559,251.98384 L 279.60599,251.98384 C 312.00839,251.98384 318.00557,235.19174 318.00557,205.78793 C 318.00557,169.18751 310.8266,157.17552 292.81742,157.17552 C 277.80684,157.17552 269.41079,169.76959 269.41079,199.1734 L 269.41079,215.98313 L 181.217,215.98313 C 181.217,126.57227 209.40374,76.778061 299.41432,76.778061 C 368.41714,76.778061 411.61446,116.37707 411.61446,197.9916 C 411.61446,251.98384 394.82236,274.79075 368.41714,284.98596 C 399.6201,302.37777 417.62928,320.98666 417.62928,385.19174 C 417.62928,470.40458 385.80896,521.99795 294.61658,521.99795 C 188.41362,521.99795 174.60247,452.99513 175.20219,361.78511 L 267.61164,361.78511 L 267.61164,401.40176 C 267.61164,425.39047 277.20712,435.58567 291.01827,435.58567 C 309.0098,435.58567 320.42208,422.9916 320.42208,382.79287 C 320.42208,338.39612 310.8266,322.78581 277.20712,322.78581 L 259.21559,322.78581 L 259.21559,251.98384 z"
     style="fill:#FFFFFF" />
  <path
     d="M 576.00062,58.530751 L 570.42677,58.530751 L 570.42677,31.349425 L 570.25038,31.349425 L 560.69018,58.530751 L 556.15702,58.530751 L 547.05542,31.349425 L 546.89667,31.349425 L 546.89667,58.530751 L 541.30518,58.530751 L 541.30518,24.011702 L 550.17748,24.011702 L 558.76755,49.676091 L 558.94394,49.676091 L 567.32235,24.011702 L 576.00062,24.011702 L 576.00062,58.530751 z M 537.33646,24.011702 L 537.33646,28.474307 L 527.82917,28.474307 L 527.82917,58.530751 L 522.25532,58.530751 L 522.25532,28.474307 L 512.76567,28.474307 L 512.76567,24.011702 L 537.33646,24.011702 z"
     style="fill:#000000" />
</svg>
